<?xml version="1.0" encoding="UTF-8" standalone="no"?>
<!-- Created with Inkscape (http://www.inkscape.org/) -->

<svg
   xmlns:dc="http://purl.org/dc/elements/1.1/"
   xmlns:cc="http://creativecommons.org/ns#"
   xmlns:rdf="http://www.w3.org/1999/02/22-rdf-syntax-ns#"
   xmlns:svg="http://www.w3.org/2000/svg"
   xmlns="http://www.w3.org/2000/svg"
   xmlns:sodipodi="http://sodipodi.sourceforge.net/DTD/sodipodi-0.dtd"
   xmlns:inkscape="http://www.inkscape.org/namespaces/inkscape"
   id="svg2"
   version="1.1"
   inkscape:version="0.91 r13725"
   xml:space="preserve"
   width="35.433067"
   height="37.946636"
   viewBox="0 0 35.433067 37.946636"
   sodipodi:docname="wusel.svg"><metadata
     id="metadata8"><rdf:RDF><cc:Work
         rdf:about=""><dc:format>image/svg+xml</dc:format><dc:type
           rdf:resource="http://purl.org/dc/dcmitype/StillImage" /><dc:title></dc:title></cc:Work></rdf:RDF></metadata><defs
     id="defs6" /><sodipodi:namedview
     pagecolor="#ffffff"
     bordercolor="#666666"
     borderopacity="1"
     objecttolerance="10"
     gridtolerance="10"
     guidetolerance="10"
     inkscape:pageopacity="0"
     inkscape:pageshadow="2"
     inkscape:window-width="1920"
     inkscape:window-height="1002"
     id="namedview4"
     showgrid="false"
     inkscape:zoom="8.795362"
     inkscape:cx="6.0677808"
     inkscape:cy="40.83275"
     inkscape:window-x="0"
     inkscape:window-y="0"
     inkscape:window-maximized="1"
     inkscape:current-layer="g10" /><g
     id="g10"
     inkscape:groupmode="layer"
     inkscape:label="template_logo"
     transform="matrix(1.25,0,0,-1.25,0,37.946636)"><path
       inkscape:connector-curvature="0"
       id="path14"
       style="fill:#ffff00;fill-opacity:1;fill-rule:nonzero;stroke:none"
       d="M 10.59,20.014 C 9.789,19.17 8.871,18.392 8.227,17.463 l 1.937,-0.028 -1.328,-3.32 1.859,0.481 c -0.289,-1.008 -0.504,-2.024 -0.398,-3.055 0.574,0.512 0.98,1.199 1.754,1.512 l 1.777,-1.883 c 0.16,0.633 0.195,1.594 0.508,1.804 l 1.699,-1.273 0.078,1.219 1.805,-0.875 -0.023,1.539 1.644,-0.449 0.957,1.406 -0.348,0.93 c 1.664,0.168 3.571,2.277 0.957,6.664 l -0.05,0.558 -0.719,0.614 0.984,0.98 -2.285,0.055 0.692,1.593 -2.258,-0.64 -0.266,1.754 -1.859,-1.141 -0.477,1.965 -1.41,-2.524 -2.707,0.985 1.539,-2.047 C 11.164,24.154 9.969,24.15 9.102,23.572 L 10.91,22.51 C 9.93,21.791 8.727,21.193 8.281,20.197 l 2.309,-0.183 z" /><path
       inkscape:connector-curvature="0"
       id="path16"
       style="fill:#ffffff;fill-opacity:1;fill-rule:nonzero;stroke:none"
       d="m 15.652,22.185 c 0.039,-0.019 1.453,0.032 1.477,0.2 -0.109,0.433 -0.176,0.89 -0.695,1.058 -0.536,-0.219 -0.602,-0.781 -0.782,-1.258 z" /><path
       inkscape:connector-curvature="0"
       id="path18"
       style="fill:#ff0000;fill-opacity:1;fill-rule:nonzero;stroke:none"
       d="m 5.805,15.142 c 0.797,0.411 1.593,0.594 2.394,0.676 L 8.273,15.033 6.039,14.291 5.805,15.142 Z" /><path
       inkscape:connector-curvature="0"
       id="path20"
       style="fill:#999999;fill-opacity:1;fill-rule:nonzero;stroke:none"
       d="m 22.75,10.599 c 1.539,-1.687 2.484,0.465 3.469,2.668 1.91,1.336 2.187,2.977 1.613,4.016 -1.652,0.359 -3.305,0.84 -5.082,-6.684 z" /><path
       inkscape:connector-curvature="0"
       id="path22"
       style="fill:#ffff00;fill-opacity:1;fill-rule:nonzero;stroke:none"
       d="m 22.602,10.853 c -1.692,3.231 2.472,7.653 4.328,6.817 -4.176,-3.461 -3.114,-4.59 -4.328,-6.817 z" /><path
       inkscape:connector-curvature="0"
       id="path24"
       style="fill:#ffff00;fill-opacity:1;fill-rule:nonzero;stroke:none"
       d="m 3.523,19.81 c 1.266,-2.976 0.942,-5.32 0.676,-7.691 1.797,0.563 2.418,6.77 -0.676,7.691 z" /><ellipse
       style="opacity:1;fill:#ffffff;fill-opacity:1;fill-rule:nonzero;stroke:none;stroke-width:6.4000001;stroke-linecap:round;stroke-linejoin:miter;stroke-miterlimit:4;stroke-dasharray:none;stroke-dashoffset:0;stroke-opacity:1"
       id="path4154"
       cx="14.597571"
       cy="-22.249146"
       rx="0.88836938"
       ry="1.1818125"
       transform="scale(1,-1)" /><rect
       style="opacity:1;fill:#ff0000;fill-opacity:1;fill-rule:nonzero;stroke:none;stroke-width:8;stroke-linecap:round;stroke-linejoin:miter;stroke-miterlimit:4;stroke-dasharray:none;stroke-dashoffset:0;stroke-opacity:1"
       id="rect4178"
       width="2.205708"
       height="1.0687451"
       x="14.647058"
       y="-19.968756"
       transform="matrix(0.95045324,-0.31086755,-0.31086755,-0.95045324,0,0)" /><path
       style="fill:#999999;fill-opacity:1;fill-rule:evenodd;stroke:none;stroke-width:0.80000001px;stroke-linecap:butt;stroke-linejoin:miter;stroke-opacity:1"
       d="m 2.6369696,19.777272 c 0,0 -1.332727,-0.672695 -1.4149593,-4.309194 -0.072356,-3.199738 1.932323,-3.984753 2.0183339,-3.973383 0.2369712,0.03133 1.0460058,-0.238763 1.1369628,2.535427 0.090957,2.774189 -0.4434155,5.82125 -1.102854,5.843989 -0.6594384,0.02274 -0.6374834,-0.09684 -0.6374834,-0.09684 z"
       id="path4180"
       inkscape:connector-curvature="0"
       sodipodi:nodetypes="cssssc" /><path
       inkscape:connector-curvature="0"
       id="path26"
       style="fill:#000000;fill-opacity:1;fill-rule:nonzero;stroke:none"
       d="m 21.949,30.299 c -0.086,-0.082 -0.293,-0.352 -0.347,-0.453 -0.098,-0.215 -0.106,-0.317 -0.071,-0.543 -0.086,-0.118 -0.195,-0.227 -0.289,-0.34 -0.918,-1.11 -1.762,-2.09 -2.57,-3.043 -0.074,-0.09 -0.16,-0.176 -0.188,-0.192 -0.066,-0.035 -0.433,-0.16 -0.695,-0.238 -0.254,-0.074 -0.297,-0.07 -0.348,0.027 -0.07,0.145 -0.066,1 0.008,1.391 0.016,0.106 0.082,0.34 -0.015,0.399 -0.047,0.027 -0.055,0.023 -0.184,-0.043 -0.422,-0.215 -0.848,-0.489 -1.309,-0.848 -0.339,-0.266 -0.418,-0.309 -0.488,-0.266 -0.293,0.485 -0.336,1.11 -0.359,1.61 -0.028,0.543 -0.028,0.554 -0.133,0.578 -0.074,0.019 -0.191,-0.106 -0.207,-0.223 -0.082,-0.312 -0.223,-0.613 -0.383,-0.894 -0.285,-0.477 -0.535,-1.004 -0.844,-1.485 -0.035,-0.051 -0.074,-0.125 -0.089,-0.164 -0.04,-0.086 -0.071,-0.098 -0.168,-0.07 -0.106,0.031 -0.622,0.293 -0.704,0.355 -0.035,0.032 -0.113,0.137 -0.179,0.246 -0.539,0.821 -1.047,1.957 -1.782,2.625 -0.082,0.071 -0.152,0.141 -0.164,0.153 -0.007,0.015 -0.007,0.09 -0.003,0.16 0.015,0.156 -0.008,0.242 -0.102,0.379 C 10.094,29.744 9.691,29.9 9.445,29.588 9.32,29.42 9.293,29.271 9.336,28.92 9.359,28.701 9.395,28.619 9.488,28.557 9.559,28.51 9.582,28.506 9.742,28.506 c 0.184,0.004 0.246,0.019 0.406,0.125 0.067,0.039 0.067,0.039 0.125,0.004 0.668,-0.434 0.907,-1.063 1.309,-1.606 0.098,-0.129 0.465,-0.836 0.465,-0.894 0,-0.055 -0.039,-0.051 -0.168,0.004 -0.258,0.113 -0.531,0.183 -0.777,0.285 -0.422,0.172 -0.403,0.164 -0.461,0.14 -0.059,-0.023 -0.118,-0.105 -0.118,-0.168 0,-0.093 0.11,-0.355 0.375,-0.652 0.266,-0.297 0.79,-1.043 1,-1.254 0.211,-0.211 0.075,-0.133 0.016,-0.148 -0.023,-0.004 -0.258,-0.012 -0.516,-0.02 -1.101,-0.023 -1.664,-0.133 -2.25,-0.437 -0.187,-0.094 -0.355,-0.243 -0.273,-0.453 0.031,-0.071 0.242,-0.29 0.367,-0.375 0.434,-0.278 0.887,-0.391 1.352,-0.586 0.144,-0.059 0.133,-0.098 -0.047,-0.2 C 10.371,22.166 10.098,22.021 9.984,21.967 9.359,21.564 8.406,20.908 8.133,20.33 8.086,20.248 8.086,20.224 8.125,20.142 c 0.043,-0.093 0.137,-0.16 0.27,-0.203 0.57,-0.078 1.05,-0.007 1.617,-0.058 0.25,-0.024 0.254,-0.043 0.023,-0.242 C 9.727,19.373 8.789,18.412 8.531,18.103 8.297,17.818 8.094,17.463 8.074,17.295 8.066,17.228 8.07,17.213 8.121,17.17 8.207,17.099 8.34,17.088 8.625,17.131 c 0.402,0.008 1,0.242 1.336,0.172 0.168,-0.036 0.191,0.054 -0.188,-0.723 C 9.703,16.471 9.367,15.623 9.23,15.67 9.203,15.682 9.16,15.705 9.133,15.724 8.805,15.912 8.387,15.978 8.004,15.951 7.402,15.881 6.461,15.693 5.926,15.31 5.855,15.252 5.793,15.248 5.773,15.295 5.766,15.31 5.754,15.498 5.746,15.705 5.758,16.627 5.523,17.521 5.301,18.244 5.184,18.517 4.871,19.721 3.328,20.201 2.793,20.135 2.469,19.939 2.152,19.549 1.426,18.541 1.258,17.256 1.191,16.205 1.129,15.158 1.219,14.244 1.508,13.361 c 0.199,-0.683 0.547,-1.41 1.004,-1.765 0.41,-0.254 1.234,-0.395 1.523,0.152 0.043,0.082 0.137,0.168 0.188,0.168 0.336,0.078 0.894,0.508 1,0.805 0.191,0.39 0.199,0.695 0.347,1.117 0.016,0.031 0.094,0.066 0.157,0.066 0.398,0.215 0.796,0.492 1.238,0.66 0.523,0.137 1.172,0.485 1.734,0.289 0.074,-0.062 0.164,-0.179 0.125,-0.25 -0.082,-0.16 -0.215,-0.554 -0.215,-0.632 0.016,-0.09 0.102,-0.157 0.196,-0.161 0.054,0 0.273,0.086 0.363,0.141 0.297,0.129 0.754,0.387 1.07,0.426 0.114,0.012 0.117,0.012 0.133,-0.031 -0.008,-0.543 -0.113,-1.207 -0.211,-1.68 -0.109,-0.52 -0.129,-0.844 -0.062,-1.059 0.027,-0.117 0.066,-0.246 0.191,-0.25 0.063,0 0.082,0.012 0.149,0.082 0.312,0.332 0.402,0.438 0.531,0.618 0.215,0.195 0.812,1.082 1.156,0.695 0.344,-0.391 1.035,-1.766 1.664,-1.828 0.066,-0.004 0.074,0 0.121,0.097 0.164,0.489 0.098,1.235 0.391,1.754 0.64,-0.398 1.168,-1.074 1.742,-1.234 0.016,0 0.051,0.019 0.07,0.043 0.086,0.094 0.09,0.117 0.09,0.543 0,0.437 0.012,0.492 0.09,0.492 0.434,-0.281 0.914,-0.512 1.367,-0.715 0.152,-0.066 0.289,-0.09 0.387,0.016 0.058,0.066 0.078,0.105 0.09,0.172 0.019,0.132 -0.008,0.773 -0.039,0.922 -0.039,0.183 -0.036,0.289 0.007,0.304 0.364,-0.129 0.786,-0.269 1.149,-0.308 0.293,-0.028 0.371,-0.016 0.492,0.078 0.09,0.066 0.109,0.074 0.184,0.066 0.625,-0.109 1.355,-0.433 1.773,-0.621 0.274,-0.117 0.277,-0.121 0.293,-0.184 0.051,-0.203 0.098,-0.394 0.137,-0.566 0.023,-0.105 0.062,-0.23 0.082,-0.277 0.019,-0.047 0.047,-0.125 0.058,-0.176 0.012,-0.051 0.032,-0.102 0.039,-0.113 0.024,-0.032 0.083,-0.231 0.098,-0.328 0.02,-0.133 0.055,-0.2 0.141,-0.286 0.043,-0.039 0.097,-0.117 0.125,-0.168 0.937,-1.082 2.008,-0.644 2.554,0.407 0.454,1.168 0.942,2.316 1.801,2.976 0.887,0.594 1.461,2.047 1.285,2.969 -0.07,0.328 -0.179,0.496 -0.543,0.812 -0.277,0.243 -0.699,0.372 -1.14,0.348 -0.992,-0.07 -1.59,-0.351 -2.27,-0.89 -0.679,-0.543 -1.715,-1.918 -2.035,-2.911 -0.051,-0.191 -0.066,-0.222 -0.109,-0.222 -0.016,0 -0.106,0.07 -0.199,0.16 -0.282,0.262 -0.708,0.457 -1.055,0.476 -0.231,0.012 -0.328,0.036 -0.363,0.09 -0.051,0.188 -0.211,0.414 -0.227,0.614 0,0.023 0.02,0.039 0.051,0.046 1.711,0.614 2.25,2.094 2.226,3.723 -0.023,0.906 -0.281,1.813 -0.879,2.566 -0.113,0.137 -0.265,0.293 -0.472,0.489 -0.071,0.066 -0.063,0.105 0.043,0.172 0.113,0.07 0.183,0.168 0.183,0.246 0,0.09 -0.043,0.164 -0.113,0.195 -0.203,0.086 -0.418,0.219 -0.594,0.309 -0.304,0.148 -0.32,0.179 -0.211,0.343 0.071,0.102 0.246,0.293 0.27,0.293 0.008,0 0.07,0.051 0.141,0.114 0.07,0.062 0.168,0.14 0.222,0.175 0.266,0.18 0.34,0.27 0.34,0.391 0.004,0.094 -0.043,0.117 -0.258,0.137 -0.523,0.105 -1.578,-0.199 -2.015,-0.039 -0.121,0.047 -0.137,0.07 -0.11,0.156 0.184,0.383 0.363,0.855 0.629,1.164 0.133,0.148 0.176,0.266 0.113,0.316 -0.05,0.043 -0.296,0 -0.746,-0.128 -0.129,-0.036 -0.207,-0.051 -0.218,-0.04 -0.024,0.024 0.105,0.219 0.253,0.383 0.61,0.742 1.266,1.559 1.872,2.266 0.027,0.027 0.164,0.183 0.304,0.34 0.215,0.238 0.266,0.285 0.297,0.277 0.024,-0.008 0.094,-0.019 0.16,-0.027 0.262,-0.008 0.43,0.121 0.602,0.285 0.156,0.152 0.199,0.242 0.199,0.43 0,0.214 -0.07,0.332 -0.262,0.457 -0.101,0.07 -0.382,0.078 -0.453,-0.004 z M 0.289,2.334 C 0.957,1.666 2.422,2.041 3.172,2.053 4.145,1.932 6.73,2.357 7.336,1.408 7.383,1.338 7.387,1.334 7.449,1.346 7.508,1.357 7.52,1.349 7.59,1.279 7.664,1.197 7.746,1.08 7.855,0.892 7.941,0.744 8.031,0.631 8.227,0.408 8.477,0.139 8.926,0.142 8.906,0.377 L 8.895,0.646 c -0.004,0.161 -0.043,0.227 0.046,0.352 0.247,0.269 1,-0.18 1.262,-0.305 0.199,-0.09 0.664,-0.312 0.836,-0.191 0.047,0.031 0.082,0.074 0.09,0.105 0.098,0.34 0.254,0.957 0.566,0.867 0.696,-0.078 1.317,-0.75 1.953,-0.925 0.879,-0.242 0.84,1.207 1.305,1.355 0.957,-0.297 1.965,-0.945 2.828,-1.375 0.133,-0.074 1.387,-0.844 1.422,-0.383 0,0.114 -0.035,0.215 -0.141,0.395 -0.117,0.203 -0.21,0.32 -0.515,0.637 -0.293,0.308 -0.356,0.39 -0.309,0.421 0.645,0.493 2.66,-1.117 3.328,-0.406 0.043,0.063 -0.007,0.153 -0.195,0.367 -0.242,0.278 -0.426,0.457 -0.734,0.723 -0.461,0.395 -0.762,0.711 -0.762,0.801 0,0.047 0.023,0.051 0.285,0.055 1.969,-0.02 7.731,0.105 6.012,1.843 -0.777,0.77 -4.5,1.215 -5.992,0.547 C 19.816,5.4 19.121,5.213 18.891,5.326 18.656,5.435 18.734,5.697 18.637,5.705 18.141,5.709 17.355,5.447 16.867,5.514 16.387,5.607 16.691,6.197 16.555,6.361 16.227,6.396 15.797,6.307 15.32,6.201 14,5.916 14.375,6.572 15.109,7.205 15.223,7.307 15.258,7.377 15.207,7.408 14.66,7.349 14.039,7.424 13.555,7.373 13.039,7.318 11.953,8.599 11.219,8.416 11.164,8.404 11.125,8.381 11.105,8.353 c -0.066,-0.14 0.161,-0.75 0.141,-0.75 -0.57,0.145 -1,0.161 -1.523,0.25 C 9.074,7.932 9.168,7.162 9.512,6.838 9.598,6.764 9.723,6.603 9.723,6.572 8.805,6.49 7.863,6.588 6.879,6.646 6.238,6.682 6.602,6.068 6.723,5.857 6.848,5.635 6.922,5.443 6.918,5.353 6.914,5.224 6.84,5.166 6.617,5.123 5.906,4.963 3.152,5.15 3.145,4.599 3.145,4.471 3.395,4.349 3.258,4.322 1.848,3.861 -0.895,4.021 0.289,2.334 Z m 14.426,25.062 c 0.004,0 0.008,0 0.015,0 0.016,-0.007 0.032,-0.089 0.047,-0.324 0.035,-0.496 0.118,-0.836 0.285,-1.172 0.086,-0.172 0.102,-0.191 0.168,-0.218 0.075,-0.028 0.079,-0.028 0.18,0.035 0.438,0.379 0.981,0.746 1.352,1.031 0.062,0.059 0.328,0.207 0.371,0.207 0.043,0 0.055,-0.047 0.027,-0.117 -0.086,-0.434 -0.121,-0.926 -0.098,-1.321 0.016,-0.328 0.036,-0.375 0.157,-0.418 0.086,-0.027 0.281,-0.003 0.465,0.059 0.125,0.039 0.367,0.106 0.394,0.106 0.031,0 0,-0.055 -0.098,-0.168 -0.058,-0.067 -0.117,-0.141 -0.128,-0.161 -0.059,-0.109 0,-0.211 0.121,-0.211 0.082,0 0.125,0.036 0.191,0.165 0.024,0.046 0.059,0.105 0.078,0.132 0.149,0.196 0.199,0.27 0.199,0.286 0,0.011 0.032,0.054 0.071,0.097 0.093,0.102 0.879,0.336 0.945,0.262 -0.086,-0.41 -0.617,-0.961 -0.66,-1.336 0,-0.066 0.125,-0.176 0.246,-0.211 0.195,-0.055 0.543,-0.051 1.094,0.012 0.234,0.027 0.828,0.031 0.855,0.004 0.039,-0.039 -0.019,-0.098 -0.375,-0.368 -0.262,-0.199 -0.484,-0.445 -0.484,-0.543 0.16,-0.277 0.492,-0.566 0.808,-0.675 0.114,-0.035 0.137,-0.09 0.059,-0.141 -0.047,-0.031 -0.051,-0.027 -0.117,0.008 -0.34,0.199 -0.551,0.305 -1.067,0.512 -0.511,0.207 -1.742,0.113 -2.289,-0.161 -0.222,-0.113 -0.3,-0.144 -0.32,-0.128 -0.012,0.011 -0.035,0.085 -0.047,0.164 -0.027,0.461 -0.375,0.929 -0.844,0.8 -0.472,-0.125 -0.597,-0.789 -0.711,-0.793 -0.015,0.004 -0.046,0.063 -0.07,0.133 -0.058,0.164 -0.117,0.25 -0.289,0.426 -0.633,0.539 -1.129,0.27 -1.476,-0.344 -0.239,-0.625 -0.29,-1.429 0.148,-1.906 0.422,-0.441 1.02,-0.281 1.316,0.16 0.043,0.07 0.11,0.156 0.145,0.195 0.059,0.067 0.066,0.071 0.109,0.051 0.067,-0.031 0.117,0 0.164,0.094 0.055,0.102 0.121,0.184 0.184,0.277 0.164,0.258 0.547,0.18 0.695,-0.019 0.074,-0.098 0.192,-0.141 0.239,-0.082 0.011,0.012 0.019,0.054 0.019,0.086 0.004,0.101 0.016,0.121 0.145,0.226 1.398,1.032 3.671,0.36 4.597,-0.941 1.328,-1.875 0.395,-5.293 -1.172,-5.535 -0.238,-0.016 -0.398,-0.094 -0.754,0.023 -0.359,0.117 -2.57,1.754 -3.097,3.266 0,0.035 -0.125,0.449 -0.196,0.637 -0.023,0.066 -0.05,0.148 -0.054,0.183 -0.028,0.141 -0.117,0.262 -0.199,0.262 -0.02,0 -0.051,-0.02 -0.071,-0.039 -0.039,-0.039 -0.039,-0.055 -0.027,-0.196 0.004,-0.085 0.023,-0.195 0.039,-0.246 0.035,-0.113 0.031,-0.179 -0.004,-0.211 -0.734,-0.191 -1.633,0.231 -2.117,0.602 -0.266,0.203 -0.375,0.312 -0.52,0.531 -0.156,0.239 -0.156,0.266 -0.004,0.344 0.094,0.051 0.106,0.059 0.106,0.113 0,0.094 -0.047,0.121 -0.254,0.153 -0.359,0.054 -0.48,0.097 -0.621,0.226 -0.176,0.16 -0.242,0.172 -0.313,0.043 -0.089,-0.16 -0.023,-0.269 0.254,-0.406 0.075,-0.039 0.118,-0.07 0.118,-0.094 -0.192,-0.582 -0.524,-1.195 -0.571,-1.816 -0.019,-0.606 -0.043,-1.207 0.395,-1.539 0.574,-0.356 0.789,-0.2 1.187,0.144 0.25,0.215 0.313,0.211 0.434,-0.031 0.086,-0.184 0.168,-0.227 0.246,-0.129 0.094,0.152 0,0.465 -0.207,0.606 -0.207,0.14 -0.406,-0.059 -0.609,-0.176 -0.122,0.301 -0.008,0.906 0.035,1.144 0.086,0.446 0.136,0.606 0.199,0.606 0.898,-0.578 2.074,-0.735 2.246,-0.629 0.098,0.07 0.156,0.047 0.211,-0.137 0.664,-1.683 2.836,-3.398 3.48,-3.512 0.364,-0.097 0.368,0.063 0.368,-0.14 0.003,-0.219 0.25,-0.512 0.207,-0.664 -0.016,-0.047 -0.028,-0.051 -0.118,-0.051 -0.304,-0.02 -0.656,0.094 -0.941,0.101 -0.105,-0.003 -0.199,-0.035 -0.234,-0.14 -0.012,-0.039 0.019,-0.125 0.062,-0.176 0.102,-0.109 0.371,-0.707 0.379,-0.836 0.012,-0.086 -0.004,-0.074 -0.082,-0.078 -0.496,0.051 -1.012,0.254 -1.453,0.508 -0.078,0.043 -0.094,0.047 -0.145,0.027 -0.07,-0.031 -0.129,-0.101 -0.129,-0.164 0.165,-0.422 0.336,-0.887 0.247,-1.371 -0.008,-0.031 -0.028,-0.059 -0.047,-0.062 -0.524,0.183 -1.09,0.46 -1.528,0.824 -0.082,0.066 -0.168,0.129 -0.195,0.136 -0.066,0.016 -0.137,-0.019 -0.176,-0.089 -0.035,-0.071 -0.035,-0.071 0,-0.243 0.035,-0.156 0.039,-0.211 0.028,-0.496 -0.02,-0.394 -0.024,-0.406 -0.168,-0.332 -0.368,0.266 -0.86,0.571 -1.176,0.938 -0.039,0.047 -0.09,0.109 -0.113,0.137 -0.079,0.093 -0.2,0.089 -0.262,-0.008 -0.02,-0.028 -0.063,-0.133 -0.098,-0.239 -0.133,-0.355 -0.293,-0.691 -0.359,-1.066 -0.035,-0.203 -0.078,-0.328 -0.113,-0.328 -0.016,0 -0.106,0.078 -0.196,0.172 -0.406,0.394 -0.754,0.816 -1.004,1.121 -0.211,0.25 -0.261,0.289 -0.398,0.289 -0.637,-0.094 -1.16,-0.824 -1.359,-1.051 -0.051,-0.043 -0.243,-0.328 -0.305,-0.265 -0.028,0.027 -0.031,0.078 -0.031,0.308 -0.004,0.231 0.007,0.324 0.058,0.609 0.113,0.641 0.133,0.762 0.172,1.254 0.023,0.317 0.047,0.375 0.168,0.411 0.059,0.019 0.086,0.039 0.098,0.078 0.015,0.586 -1.383,0.043 -1.606,-0.121 -0.047,-0.028 -0.254,-0.145 -0.273,-0.098 -0.02,0.047 0.023,0.199 0.121,0.422 0.183,0.504 0.422,0.965 0.68,1.457 0.183,0.398 0.398,0.781 0.605,1.152 0.043,0.07 0.043,0.082 0.016,0.121 -0.016,0.028 -0.067,0.071 -0.11,0.102 C 9.773,17.713 9.156,17.486 8.586,17.459 8.375,17.447 8.352,17.463 8.43,17.58 c 0.07,0.164 0.199,0.293 0.293,0.437 0.07,0.122 1.203,1.239 1.371,1.36 0.218,0.16 0.527,0.324 0.597,0.328 0.016,0 0.063,0.016 0.106,0.035 0.058,0.027 0.082,0.051 0.109,0.117 0.051,0.145 -0.004,0.254 -0.133,0.254 -0.039,0 -0.113,0.016 -0.171,0.028 -0.172,0.046 -0.516,0.066 -1.129,0.078 -0.852,0.011 -0.961,0.023 -1.012,0.117 -0.008,0.152 0.152,0.25 0.242,0.367 0.375,0.395 1.109,0.887 1.477,1.078 0.558,0.289 0.804,0.399 0.925,0.399 0.032,0 0.079,0.011 0.102,0.027 0.051,0.035 0.152,0.23 0.152,0.289 0,0.059 -0.086,0.129 -0.254,0.211 -0.078,0.039 -0.167,0.082 -0.191,0.094 -0.504,0.218 -1.156,0.308 -1.555,0.672 -0.132,0.121 -0.121,0.14 0.18,0.289 0.441,0.222 0.91,0.23 1.215,0.257 0.363,0.028 1.203,0.024 1.391,-0.007 0.085,-0.016 0.167,-0.036 0.183,-0.039 0.051,-0.02 0.094,0.015 0.172,0.125 0.113,0.164 0.125,0.14 -0.262,0.57 -0.363,0.441 -0.824,0.883 -1.097,1.371 -0.02,0.035 -0.02,0.047 0.004,0.055 0.378,-0.059 0.738,-0.239 1.07,-0.395 0.137,-0.062 0.14,-0.066 0.223,-0.219 0.156,-0.289 0.285,-0.504 0.347,-0.566 0.117,-0.117 0.266,-0.055 0.266,0.113 -0.012,0.129 -0.063,0.176 -0.137,0.258 0.129,-0.023 0.262,-0.082 0.309,-0.184 0.047,-0.117 0.082,-0.152 0.148,-0.152 0.059,0 0.082,0.039 0.137,0.231 0.039,0.136 0.097,0.269 0.222,0.472 0.282,0.543 0.692,1.246 0.868,1.582 0.05,0.117 0.086,0.164 0.117,0.164 z m 2.094,-2.57 c -0.071,-0.004 -0.121,-0.047 -0.18,-0.148 -0.043,-0.075 -0.043,-0.09 -0.024,-0.129 0.04,-0.071 0.125,-0.129 0.266,-0.188 0.215,-0.09 0.352,-0.195 0.414,-0.316 0.035,-0.071 0.102,-0.164 0.125,-0.18 0.035,-0.027 0.063,-0.016 0.094,0.027 0.043,0.063 0.035,0.168 -0.035,0.317 -0.149,0.23 -0.36,0.625 -0.66,0.617 z m -2.907,-0.289 c -0.16,0 -0.308,-0.137 -0.468,-0.438 -0.09,-0.164 -0.09,-0.167 -0.094,-0.335 0,-0.184 0.039,-0.305 0.109,-0.34 0.055,-0.028 0.059,-0.024 0.098,0.011 0.027,0.028 0.027,0.055 0.015,0.231 -0.015,0.191 0.106,0.617 0.336,0.582 0.071,-0.008 0.09,-0.004 0.129,0.035 0.102,0.106 0.028,0.254 -0.125,0.254 z m 1.153,-1.406 c 0.093,-0.09 0.211,-0.27 0.23,-0.36 0.008,-0.027 0.027,-0.097 0.043,-0.16 0.024,-0.074 0.031,-0.187 0.035,-0.351 0.004,-0.231 0,-0.25 -0.054,-0.391 -0.09,-0.223 -0.329,-0.551 -0.536,-0.66 -0.082,-0.039 -0.097,-0.039 -0.234,-0.02 -0.559,0.172 -0.598,0.571 -0.641,1.051 -0.011,0.145 0,0.238 0.067,0.52 0.055,0.242 0.242,0.515 0.426,0.613 0.226,0.117 0.507,-0.106 0.664,-0.242 z m 1.633,0.027 c 0.109,-0.168 0.148,-0.262 0.203,-0.496 l 0.047,-0.191 c -0.036,-0.051 -0.063,-0.118 -0.118,-0.149 -0.07,-0.023 -0.105,0.051 -0.105,0.113 -0.125,0.633 -0.621,0.418 -0.742,0.008 -0.039,-0.136 -0.086,-0.191 -0.157,-0.191 -0.015,0 -0.035,0.015 -0.043,0.039 -0.015,0.07 0.047,0.293 0.137,0.476 0.223,0.368 0.485,0.832 0.778,0.391 z M 14.316,22.42 c -0.101,-0.246 -0.027,-0.606 0.207,-0.735 0.09,-0.043 0.145,-0.039 0.27,0.028 0.426,0.172 0.539,0.828 0.113,1.07 -0.25,0.094 -0.48,-0.156 -0.59,-0.363 z m 5.797,-1.137 c -0.035,0 -0.086,-0.012 -0.136,-0.035 -0.606,-0.203 -1.235,-0.402 -1.805,-0.695 -0.195,-0.102 -0.305,-0.211 -0.305,-0.301 0,-0.047 0.043,-0.102 0.082,-0.102 0.578,0.571 1.985,0.489 2.254,1.035 0.016,0.063 -0.023,0.094 -0.09,0.098 z m 0.02,-1.398 c -0.004,0 -0.012,0 -0.016,0 -0.953,-0.133 -1.324,-0.27 -1.39,-0.512 -0.016,-0.063 0.007,-0.125 0.054,-0.149 0.067,-0.031 0.074,-0.027 0.157,0.047 0.042,0.039 0.136,0.098 0.214,0.129 0.325,0.117 0.512,0.184 0.86,0.25 0.144,0.028 0.234,0.071 0.246,0.125 0.015,0.063 -0.043,0.114 -0.125,0.11 z M 3.582,19.291 c 0.063,-0.106 0.137,-0.25 0.16,-0.32 0.602,-2.161 0.789,-4.872 0.211,-6.872 -0.148,-0.312 -0.387,-0.531 -0.801,-0.453 -0.64,0.153 -0.757,0.411 -1.097,0.926 -0.551,1.215 -0.711,2.824 -0.547,3.957 0.148,0.969 0.304,2.227 0.957,2.844 0.031,0.027 0.094,0.086 0.14,0.133 0.438,0.39 0.743,0.172 0.977,-0.215 z M 3.73,19.662 C 4.367,19.428 4.754,18.853 4.953,18.385 5.398,17.377 5.484,16.349 5.492,15.42 5.469,14.572 5.355,13.635 4.996,12.865 4.844,12.599 4.676,12.471 4.406,12.33 4.355,12.287 4.332,12.303 4.332,12.373 4.457,13.06 4.5,13.713 4.551,14.369 4.57,14.58 4.562,15.103 4.539,15.502 4.523,16.834 4.371,17.81 4.027,18.998 3.996,19.096 3.859,19.389 3.766,19.541 3.723,19.619 3.707,19.658 3.73,19.662 Z m 16.668,-0.691 c -0.207,-0.039 -0.769,-0.161 -0.851,-0.309 -0.074,-0.145 0.035,-0.266 0.152,-0.176 0.203,0.16 0.86,0.215 0.797,0.434 -0.012,0.039 -0.039,0.054 -0.098,0.051 z m 6.153,-1.442 c 0.031,-0.019 0.039,-0.012 -0.192,-0.164 -1.683,-0.937 -3.371,-3.625 -3.687,-6.086 -0.016,-0.125 -0.035,-0.144 -0.07,-0.086 -0.028,0.039 -0.047,0.11 -0.137,0.426 -0.016,0.055 -0.039,0.129 -0.055,0.164 -0.023,0.063 -0.035,0.106 -0.082,0.344 -0.078,0.379 -0.082,0.734 -0.012,1.109 0.325,1.348 1.207,2.672 2.188,3.574 0.66,0.598 1.488,0.969 2.047,0.719 z m 0.898,-0.215 c 0.285,-0.191 0.508,-0.191 0.559,-0.781 0.054,-0.586 -0.309,-1.773 -0.953,-2.34 -1.743,-1.465 -1.645,-2.801 -2.254,-3.578 -0.434,-0.617 -1.242,-0.613 -1.762,-0.148 -0.098,0.093 -0.156,0.16 -0.148,0.437 0.246,2.367 2.261,5.883 4.214,6.395 0.137,0.031 0.239,0.078 0.344,0.015 z M 2.406,17.271 c -0.066,0 -0.09,-0.023 -0.136,-0.07 -0.079,-0.074 -0.082,-0.109 -0.024,-0.18 0.254,-0.07 0.418,-0.023 0.734,-0.047 0.032,0 0.079,0.008 0.106,0.024 0.129,0.066 0.074,0.176 -0.094,0.199 -0.203,0.012 -0.383,0.078 -0.586,0.074 z m 10.301,-1.027 c -0.012,0 -0.023,0 -0.035,-0.004 -0.059,-0.016 -0.078,-0.055 -0.094,-0.18 -0.008,-0.086 -0.004,-0.113 0.027,-0.16 0.102,-0.168 0.457,-0.226 0.938,-0.164 0.312,0.039 0.422,0.094 0.391,0.196 -0.016,0.05 -0.051,0.054 -0.27,0.039 -0.363,-0.032 -0.535,0.011 -0.762,0.179 -0.09,0.071 -0.14,0.098 -0.195,0.094 z m 13.438,-0.281 c -0.086,-0.008 -0.207,-0.114 -0.211,-0.196 0,-0.07 0.043,-0.136 0.089,-0.136 0.012,0 0.122,-0.043 0.243,-0.102 0.351,-0.172 0.425,-0.187 0.488,-0.101 0.058,0.078 0.023,0.144 -0.117,0.207 -0.141,0.058 -0.403,0.336 -0.492,0.328 z M 2.371,15.916 2.305,15.853 C 2.211,15.771 2.203,15.724 2.262,15.662 c 0.043,-0.047 0.05,-0.051 0.152,-0.035 0.164,0.035 0.688,-0.031 0.77,0.035 0.039,0.039 0.043,0.125 0.007,0.152 -0.293,0.071 -0.531,0.082 -0.82,0.102 z M 8.098,15.709 C 8.172,15.502 8.176,15.334 8.156,15.135 8.035,15.127 7.91,15.119 7.789,15.088 c 0.059,0.293 -0.059,0.336 -0.121,0.558 0.156,0.047 0.27,0.051 0.43,0.063 z M 6.68,15.408 C 6.73,15.334 6.926,14.889 6.93,14.81 6.691,14.67 6.391,14.572 6.172,14.459 l 0.012,0.094 c 0.015,0.121 -0.024,0.328 -0.079,0.406 -0.023,0.031 -0.043,0.07 -0.043,0.082 0.126,0.152 0.434,0.344 0.618,0.367 z M 3.199,14.963 C 3.008,14.959 2.52,14.951 2.41,14.83 2.359,14.771 2.352,14.736 2.383,14.682 c 0.023,-0.043 0.066,-0.043 0.16,-0.008 0.176,0.097 0.578,0.039 0.715,0.129 0.07,0.046 0.086,0.093 0.051,0.136 -0.016,0.016 -0.036,0.024 -0.11,0.024 z m 22.078,-0.102 c -0.047,0 -0.082,-0.019 -0.148,-0.07 -0.133,-0.106 -0.078,-0.195 0.148,-0.246 0.18,-0.039 0.301,-0.078 0.434,-0.145 0.101,-0.043 0.277,-0.086 0.277,0.063 0,0.043 -0.015,0.066 -0.086,0.117 -0.195,0.09 -0.406,0.281 -0.625,0.281 z m -4.718,-0.668 c 0.031,-0.008 0.136,-0.019 0.218,-0.027 0.168,-0.02 0.25,-0.043 0.25,-0.082 -0.105,-0.063 -0.168,-0.664 -0.269,-0.68 -0.012,0 -0.059,0.012 -0.102,0.028 -0.215,0.062 -0.297,0.082 -0.398,0.093 -0.121,0.012 -0.117,0.008 -0.078,0.192 0.058,0.254 0.101,0.336 0.168,0.336 0.043,0 0.132,0.093 0.14,0.129 0.008,0.035 0.039,0.015 0.071,0.011 z m 1.359,-0.484 c -0.141,-0.16 -0.152,-0.672 -0.246,-0.809 -0.152,0.172 0.019,0.633 0.086,0.821 0.031,0.066 0.16,0.05 0.16,-0.012 z m 2.687,-0.11 c -0.078,-0.035 -0.195,-0.128 -0.195,-0.21 0,-0.051 0.098,-0.125 0.262,-0.207 0.098,-0.051 0.215,-0.165 0.308,-0.094 0.043,0.039 0.024,0.113 -0.054,0.226 -0.09,0.106 -0.176,0.274 -0.321,0.285 z" /></g></svg>