<?xml version="1.0" encoding="UTF-8" standalone="no"?>
<!-- Created with Inkscape (http://www.inkscape.org/) -->

<svg
   xmlns:dc="http://purl.org/dc/elements/1.1/"
   xmlns:cc="http://creativecommons.org/ns#"
   xmlns:rdf="http://www.w3.org/1999/02/22-rdf-syntax-ns#"
   xmlns:svg="http://www.w3.org/2000/svg"
   xmlns="http://www.w3.org/2000/svg"
   xmlns:sodipodi="http://sodipodi.sourceforge.net/DTD/sodipodi-0.dtd"
   xmlns:inkscape="http://www.inkscape.org/namespaces/inkscape"
   width="67.274879mm"
   height="88.298546mm"
   viewBox="0 0 238.37556 312.86886"
   id="svg2"
   version="1.1"
   inkscape:version="0.91 r13725"
   sodipodi:docname="wusel_lehre.svg">
  <defs
     id="defs4" />
  <sodipodi:namedview
     id="base"
     pagecolor="#ffffff"
     bordercolor="#666666"
     borderopacity="1.0"
     inkscape:pageopacity="0.0"
     inkscape:pageshadow="2"
     inkscape:zoom="3.959798"
     inkscape:cx="93.979884"
     inkscape:cy="175.23718"
     inkscape:document-units="px"
     inkscape:current-layer="g3349"
     showgrid="false"
     inkscape:window-width="1680"
     inkscape:window-height="986"
     inkscape:window-x="0"
     inkscape:window-y="27"
     inkscape:window-maximized="1"
     fit-margin-top="0"
     fit-margin-left="0"
     fit-margin-right="0"
     fit-margin-bottom="0" />
  <metadata
     id="metadata7">
    <rdf:RDF>
      <cc:Work
         rdf:about="">
        <dc:format>image/svg+xml</dc:format>
        <dc:type
           rdf:resource="http://purl.org/dc/dcmitype/StillImage" />
        <dc:title></dc:title>
      </cc:Work>
    </rdf:RDF>
  </metadata>
  <g
     inkscape:label="Ebene 1"
     inkscape:groupmode="layer"
     id="layer1"
     transform="translate(-66.428575,-95.564716)">
    <g
       id="g5639"
       transform="matrix(0.18481532,0,0,0.18481532,36.198071,154.99806)">
      <path
         sodipodi:nodetypes="ccccccccccccccccccccscscccccsssccccccccccccccccc"
         inkscape:connector-curvature="0"
         id="path5563"
         d="m 549.01729,67.497349 -163.57143,-104.28571 77.14286,142.857141 -134.28571,37.14286 122.85714,48.57142 -77.14286,65.71429 60,22.85714 -71.42857,48.57143 48.57143,28.57143 c -62.9534,67.5376 -149.31741,115.2662 -188.57143,202.8571 47.62483,29.9856 131.34702,-30.2723 197.14286,-45.7142 -20.1374,53.0064 -53.88786,101.9288 -57.14286,160 51.27864,-1.2523 81.90476,-43.8096 122.85714,-65.7143 -19.04788,49.52369 -52.31169,93.36102 -57.14285,148.5714 l 71.42857,-31.4286 -37.14286,102.8572 51.42857,-37.1429 11.42857,157.1429 51.28189,-45.438 -3.87774,150.24825 c -116.46093,-6.3074 -509.788791,108.6613 -294.23101,155.08 57.804,12.4476 179.30535,50.8651 337.21554,6.1911 235.10599,-37.723 174.35684,-117.1739 64.48985,-165.9005 -38.43473,-17.046 18.6929,-116.60945 18.6929,-116.60945 l 55,-137.8571 65.71429,71.4285 60,-137.1428 c 38.28517,32.3547 35.39361,88.956 52.85714,133.5714 -4.21162,147.45665 -1.39226,174.12425 -7.82262,176.03525 -40.89309,12.1531 -63.05265,42.4072 -68.99811,70.3823 -38.52939,181.2921 549.11161,170.4452 566.83241,21.2381 2.6706,-22.4858 -149.6633,-121.6245 -328.4417,-90.414 -82.6128,-39.5981 -35.1389,-19.7933 -70.4909,-29.4965 6.5392,-82.37885 -26.11663,-246.76585 7.4923,-261.31655 l -17.1428,-60 60,20 -22.8572,-131.4286 117.1429,17.1429 -34.2857,-160.00004 137.1428,22.85714 c -26.6667,-53.33333 -77.011,-102.36163 -80,-160 l 122.8572,-31.42857 -134.2857,-114.28572 122.8571,-85.714281 c -47.4844,-37.11397 -142.5508,-17.12955 -225.7143,-11.42857 l 25.7143,-77.14286 -161.42855,92.85714 C 729.87738,-36.581811 676.18244,36.457499 549.01729,67.497349 Z"
         style="fill:#ffff00;fill-opacity:1;fill-rule:evenodd;stroke:none;stroke-width:1px;stroke-linecap:butt;stroke-linejoin:miter;stroke-opacity:1" />
      <path
         inkscape:connector-curvature="0"
         id="path5567"
         d="m 583.3631,870.53474 -9.09138,149.50256 89.90358,28.2843 18.18275,-150.51274 -51.51778,-77.78175 z"
         style="fill:#ff0000;fill-opacity:1;fill-rule:evenodd;stroke:none;stroke-width:1px;stroke-linecap:butt;stroke-linejoin:miter;stroke-opacity:1" />
      <path
         sodipodi:nodetypes="cccccc"
         inkscape:connector-curvature="0"
         id="path5567-4"
         d="m 927.82511,809.92559 -6.06092,205.06091 89.90361,28.2843 18.1827,-150.5127 -20.203,-108.08633 z"
         style="fill:#ff0000;fill-opacity:1;fill-rule:evenodd;stroke:none;stroke-width:1px;stroke-linecap:butt;stroke-linejoin:miter;stroke-opacity:1" />
      <path
         sodipodi:nodetypes="cccc"
         inkscape:connector-curvature="0"
         id="path5635"
         d="m 233.34524,1164.4891 c 183.17433,148.0809 417.3022,64.3985 549.52298,-14.1421 3.77679,47.8647 -49.70845,85.6742 -94.95434,123.2183 -380.16556,114.7316 -517.99528,13.3949 -454.56864,-109.0762 z"
         style="fill:#ff0000;fill-opacity:1;fill-rule:evenodd;stroke:none;stroke-width:1px;stroke-linecap:butt;stroke-linejoin:miter;stroke-opacity:1" />
      <path
         sodipodi:nodetypes="cccc"
         inkscape:connector-curvature="0"
         id="path5637"
         d="m 836.40631,1112.0424 c -8.56438,222.0409 335.96269,227.1342 552.55339,138.3097 l 35.3554,-103.0356 c -310.8201,206.628 -609.00135,-5.7658 -587.90879,-35.2741 z"
         style="fill:#ff0000;fill-opacity:1;fill-rule:evenodd;stroke:none;stroke-width:1px;stroke-linecap:butt;stroke-linejoin:miter;stroke-opacity:1" />
      <g
         transform="translate(534.28571,100)"
         id="g3349">
        <path
           sodipodi:nodetypes="cccccccc"
           inkscape:connector-curvature="0"
           id="path5565"
           d="M -174.6714,-364.87671 19.27788,-106.27766 9.17636,-27.485764 c 151.81054,-45.165858 302.88541,-88.492556 402.04071,-2.020305 l 20.20305,-68.690373 34.34517,0 171.726,-313.147288 c -270.4544,14.51185 -534.50085,5.52789 -812.16269,46.46702 z"
           style="fill:#1240af;fill-opacity:1;fill-rule:evenodd;stroke:#004291;stroke-width:5.41080666px;stroke-linecap:butt;stroke-linejoin:miter;stroke-opacity:1" />
        <path
           sodipodi:nodetypes="cccccsscssccsccccccscssssccccccccccssssssscccssssssssccsssccssscccccssccsssssssccsccsscccccsssscccccccccscccsssccccccccscsccccscssccsscccssssccczcsssccssssssscccccccssccccsssssssssssssccssssssssscccsccccccssscsccsscssccccsscsccccssscsssscssccscccccscsccccccccccsscccsccccccsscccccccsccsscscccccsccsszcsssccssssssssccssssccscscccccccccsscccssssssscsssscccccccsccsccccscsccccccscccsccccssccccscccscczzccsssccsssscccsscccccssccccccssccccssscccscssccccccsssccscccsssssccccscccssssccccccszsccccsccccscssssssscssscccscccscccscssscccccccssccsccssssssccccssccsssssscccccssssccccsszcsssccsccccscccccsccssssssccccsssssssscccccccccccssccscccsccsssccccccsssccsssssssssccsssccssssscccsccccccsccssssscccccsscssccccczzcccsssccscccccccssssccccssccccccsccczccscccsscsszcssssszzcsccccccccccczcsccsccssccscccccscssscccscsccssccscscccscccscscccsccccccccccsccccsccsscsccss"
           inkscape:connector-curvature="0"
           id="path3351"
           d="m -214.73788,1268.6883 c 0.31748,-4.2147 4.48958,-5.7752 39.78963,-14.8828 13.32867,-3.4387 27.32771,-7.1554 31.10896,-8.2591 3.78125,-1.1036 9.40625,-2.4979 12.5,-3.0983 3.39895,-0.9337 22.7306,-4.118 22.23569,-7.2458 -0.32707,-1.7103 -3.19083,-2.1899 -17.87508,-2.9935 -9.61709,-0.5263 -28.69063,-0.8075 -42.38566,-0.625 l -24.90005,0.332 -2.0289,3.6638 c -2.48334,4.4844 -8.32258,6.3469 -41.921,13.3713 -3.4375,0.7187 -8.28401,1.8205 -10.77003,2.4482 -6.59938,1.6668 -16.82676,1.4093 -18.38041,-0.4627 -3.32954,-4.0119 2.02519,-6.0553 22.27544,-8.5006 13.77559,-1.6634 35.3149,-5.9972 36.72847,-7.3899 2.43159,-2.3955 -0.45631,-4.6785 -6.93452,-5.4819 -18.75573,-3.4322 -30.41329,-4.525 -47.66218,-11.0376 -5.62581,-2.1424 -10.64411,-3.349 -11.875,-2.8555 -6.73511,1.9188 -13.25142,2.654 -20.25677,4.3615 -19.49314,4.8002 -26.61088,5.4212 -27.21573,2.3745 -0.50088,-2.5233 10.20462,-7.3661 16.28308,-7.3661 5.99643,0 17.18251,-3.5452 18.01274,-5.7088 1.01318,-2.6402 -1.46954,-5.0771 -10.08346,-9.8971 -11.37662,-6.366 -24.51215,-20.0568 -30.75366,-32.0538 -6.55973,-12.6086 -8.2721,-13.4955 -19.03687,-9.8593 -10.45094,3.5302 -22.8311,3.2607 -22.8311,-0.4968 0,-1.6324 0.99137,-2.4914 3.125,-2.7077 9.61591,-0.9752 22.32048,-3.1939 25.3125,-4.4205 4.05037,-1.6607 4.14716,-2.762 1.52514,-17.356 -2.26594,-32.0661 12.2439,-61.6924 30.93886,-81.5842 28.10968,-31.3741 66.83695,-39.067 103.4735,-56.25908 50.96321,-21.88646 115.02298,-37.5557 166.875,-42.9205 7.928975,-0.8105 31.45055,-1.08062 38.4375,-0.4415 1.546875,0.14163 6.1875,-4.4335 10.3125,-5.27787 4.125,-0.8445 10.394625,2.08 13.932512,1.60987 3.537876,-0.47025 7.33475,-1.60362 8.4375,-2.51887 2.586188,-2.14638 2.5768,-8.91138 -0.03025,-21.77763 -2.554162,-12.60525 -1.804012,-57.54262 1.192813,-71.45525 2.63045,-12.21162 4.022762,-36.30696 2.164312,-37.45555 -2.258337,-1.39572 -4.553162,1.29061 -10.503212,12.29518 -10.707663,19.80362 -18.6500625,29.05075 -27.4451875,31.95337 -3.8442625,1.26875 -5.1327125,1.123 -9.4220375,-1.06525 -7.927513,-4.04425 -8.678238,-7.66462 -9.611925,-46.35275 -2.01255,-83.39174 -2.529775,-98.22576 -3.475838,-99.6875 -17.362316,1.59985 -24.175812,25.90986 -42.562924,31.25006 -6.198553,1.77428 -15.179623,1.80941 -17.063201,-5.31258 -1.230662,-5.20613 9.072063,-34.86385 23.014438,-66.25 5.164175,-11.62525 8.833213,-24.17186 7.8318,-26.78152 -1.443963,-3.7629 -4.667312,-1.89498 -18.842812,10.91942 -14.7835,13.364 -32.132638,24.0392 -36.690368,22.57615 -13.96266,-4.48205 -14.86423,-9.33627 -6.43881,-34.66723 3.67065,-11.03578 14.72086,-36.10329 18.53499,-42.04682 2.959762,-4.61217 20.4867,-40.08128 26.448075,-53.5227 6.034362,-13.60602 7.33555,-20.19148 4.460912,-22.57722 -2.843887,-2.36023 -9.012487,-0.60971 -14.383812,4.08181 -9.798128,8.05392 -20.147815,15.61323 -29.547015,23.51075 -26.98772,22.73758 -34.0197,28.09863 -42.32567,32.26834 -9.53275,4.78556 -14.6255,5.64954 -22.67848,3.84736 -13.01486,-2.9126 -14.56971,-10.04532 -7.54546,-34.61406 6.91043,-24.17061 21.27748,-55.26281 37.7723,-81.74428 5.2456,-7.64887 7.96022,-16.76306 13.4348,-24.21181 9.5637,-12.76429 10.70712,-23.28815 2.53031,-23.28815 -2.42008,0 -27.02656,8.06444 -51.81276,16.98093 -5.15625,1.85488 -20.90625,8.26686 -35,14.24883 -29.63991,12.58042 -50.30232,20.36604 -59.81741,22.5393 -13.95421,2.16127 -42.59571,3.51537 -48.92389,-11.87119 -1.78649,-4.69882 1.04296,-10.85966 14.89007,-32.42147 29.87969,-45.76955 70.28257,-76.1544 113.22623,-114.63878 15.74638,-17.07542 47.76161,-34.86173 59.28901,-54.62911 2.1183,-4.02407 -0.664,-6.88136 -9.73417,-9.99656 -28.445,-9.76955 -32.82149,-11.94279 -35.85194,-17.80304 -1.8512,-3.57982 -1.80594,-4.16497 0.72695,-9.39721 9.25082,-14.74189 33.11666,-25.17909 48.69515,-33.06126 3.78125,-1.88244 8.26242,-4.91667 9.95817,-6.74272 4.60343,-4.95716 2.43112,-7.36922 -7.58833,-8.4258 -19.56339,-2.06301 -28.58675,-4.30988 -36.91949,-9.19318 -7.63805,-4.4762 -8.89183,-7.59288 -5.62808,-13.99038 4.77424,-9.35827 8.89435,-13.1552 28.77423,-26.51711 2.49067,-1.67408 12.68475,-7.11003 22.6535,-12.07991 9.96875,-4.96988 19.76699,-10.76149 21.77385,-12.87024 3.236212,-3.40051 3.484513,-4.19479 2.19565,-7.023525 -26.66724,-18.990786 -59.39156,-11.986488 -94.5945,-29.028887 -12.44379,-6.255688 -23.4158,-14.469376 -25.27614,-18.921788 -3.71265,-8.885613 0.10513,-12.748712 21.52614,-21.781625 25.2732,-11.104708 48.23419,-16.123971 73.75,-19.50475 24.887275,-3.17255 29.569225,-4.2549125 31.562125,-7.2964625 2.114575,-3.22725 2.132137,-3.196725 -16.002305,-27.8240625 -8.86813,-12.0433 -22.64078,-38.26675 -32.49697,-61.875 -3.24031,-13.18979 -23.85961,-45.39902 -13.6969,-55.80826 19.66832,-1.34623 46.11154,23.66583 61.027225,35.80826 19.854834,15.037114 42.442489,32.053745 60.873763,44.375 7.523653,4.651919 14.618665,10.854537 23.011487,13.718125 4.5846625,1.513075 5.434125,1.480038 7.193975,-0.279812 1.0975125,-1.097513 2.4529875,-4.710738 3.01215,-8.0294 2.3045625,-13.677425 5.081,-24.48425 7.6476625,-29.767213 2.5891005,-5.329137 2.6231255,-5.8151 0.6909625,-9.866887 -1.1177375,-2.343933 -4.6500375,-6.430273 -7.8495625,-9.080753 -15.8172105,-11.44276 -23.8570985,-30.83217 -36.1707875,-44.19406 -38.939977,-52.61162 -84.625635,-107.21691 -116.983485,-162.5 -10.14714,-13.6517 -20.45259,-33.15568 -31.69576,-45.57724 -5.26183,-5.74457 -5.899,-11.05527 -1.93155,-16.09905 37.03928,-10.76807 101.245786,-18.61116 138.750258,-18.95657 58.032789,-2.89026 117.020492,-9.38126 170.557712,-10.63816 47.63444,-1.08843 68.68101,-2.22368 93.125,-5.02315 46.41951,-7.02719 95.14513,-4.82494 136.25,-5.18347 21.56552,-0.21262 39.35442,0.34219 55,1.71538 18.7238,1.64337 29.31047,1.83109 55.625,0.98636 53.14965,0.0116 115.24424,-11.2691 162.49934,-8.72303 6.05226,0.74155 19.45563,3.8128 22.40337,10.35525 0.94694,2.66599 0.50069,4.18397 -2.5,8.50394 -2.00899,2.89226 -5.8308,8.69127 -8.49291,12.88669 -2.66211,4.19543 -7.82223,12.12805 -11.46693,17.62805 -7.87008,11.87629 -27.56787,45.86735 -27.56787,48.21727 24.38868,12.26096 44.79246,22.34625 56.142,47.22023 3.96867,5.92343 5.995,3.9375 13.10555,3.93944 4.28056,10e-4 8.87494,0.87491 11.50245,2.1875 6.38,2.2754 2.03849,7.11878 5.05492,11.00175 1.65888,1.99881 10.01145,2.46682 11.88258,0.6658 18.55457,-10.00334 63.58928,-19.89143 78.04759,-18.8662 3.86834,8.69108 -20.59362,13.12737 -24.03023,13.76089 -17.8964,3.21526 -28.89788,8.8053 -25.00016,12.70302 1.19533,1.19532 2.80489,1.19791 7.4719,0.0125 12.17816,-3.09442 63.35398,-5.1087 67.90558,-2.67276 2.8019,1.49954 3.12213,4.765 0.78125,7.96636 -21.44338,9.20895 -36.50405,2.29044 -61.0248,8.28311 -4.8206,1.29807 -9.83863,5.03818 -9.83863,7.33308 -1.53055,14.00409 52.98206,22.73173 67.07334,34.5646 1.09737,2.8597 -2.9856,8.05887 -6.32874,8.05887 -1.62127,0 -12.68054,-3.12167 -24.57615,-6.93705 -24.03504,-7.70941 -29.29345,-8.22051 -29.29345,-2.84768 0,3.46632 8.28651,14.46406 19.47015,25.84051 3.14607,3.20031 7.26857,8.16347 9.16109,11.02922 7.82495,11.84639 -5.30533,11.06863 -11.25619,6.82068 -6.82281,-5.02974 -28.90646,-28.15312 -42.84238,-44.85944 -9.23918,-11.07591 -12.38316,-14.0467 -14.86557,-14.0467 -3.12066,0 -3.14068,0.0685 -2.28431,7.8125 2.27107,18.36216 3.78167,41.21482 13.8676,56.48241 10.68557,19.74735 -3.93099,18.42426 -12.24508,7.30289 -9.33216,-12.71294 -14.95332,-31.97063 -17.2502,-59.0978 -1.40166,-16.55429 -2.60842,-18.98594 -11.75943,-23.69521 -7.41709,-3.81696 -10.46339,-9.91849 -12.05509,-24.14549 -0.60642,-5.42024 -2.01514,-11.63907 -3.13049,-13.81964 -1.11535,-2.18056 -7.1539,-9.02716 -13.419,-15.21466 -14.38813,-13.07584 -24.8502,-19.75882 -43.23717,-26.14426 -5.31593,-1.78942 -5.73415,-1.754 -8.35432,0.70751 -18.659,34.9893 -48.1953,83.47018 -64.76305,113.56175 -16.56775,30.09157 -33.37742,59.65969 -48.03938,90.313725 -5.30792,11.195075 -10.74805,13.9265 -27.20188,13.657725 -10.65121,-0.173975 -12.97619,1.89365 -17.13759,15.2407 -3.81863,12.2477 -3.80308,12.098375 -1.57741,15.142163 1.64155,2.24495 1.93074,2.200024 7.73485,-1.201413 16.1631,-10.214656 32.31281,-21.519638 47.66411,-31.125587 13.45125,-8.394601 35.89477,-22.767183 43.98727,-28.168993 26.89136,-17.95013 42.66792,-22.74632 48.31263,-14.68736 2.20633,3.14998 2.37202,8.88242 0.42503,14.70502 -2.17708,6.51067 -14.46368,34.193183 -20.59932,46.411545 -3.01392,6.001888 -5.47987,11.796212 -5.47987,12.876275 0,3.512025 8.45046,5.978225 17.5,5.107225 14.64502,-1.409562 32.97926,-4.267762 45,-7.01525 22.59339,-5.163987 49.51027,-7.079762 70.625,-5.026662 25.6672,1.937496 54.15229,2.451207 74.89576,13.053362 15.50152,7.976538 17.3252,13.212713 9.24516,26.544725 -14.81262,27.909367 -68.11009,35.38883 -107.57842,66.4291 -9.61731,7.121913 -9.61731,9.61245 0,18.525125 15.32211,12.303915 30.50896,20.614178 47.55545,30.89155 19.32625,14.056535 36.27377,27.556975 55.13317,41.981965 4.88018,3.72897 12.83122,10.862 17.66895,15.85119 7.83339,8.0786 8.70333,9.45683 7.94998,12.59505 -2.21234,9.21605 -7.06533,14.03976 -16.75651,16.65546 -30.53703,7.70004 -60.59124,2.42236 -91.23854,11.4475 -8.7638,2.70006 -19.14313,7.9857 -20.87754,10.6318 -3.33189,8.13323 23.19684,38.60735 29.68231,47.28906 21.15915,28.30285 39.99338,62.11509 50.73232,91.07746 6.23201,16.80744 6.57243,22.49982 1.6584,27.73057 -5.13988,5.47115 -7.73195,5.12397 -38.26172,-5.12452 -52.21122,-17.5267 -52.08311,-17.49227 -76.05877,-20.43782 -18.31626,-2.25025 -22.65133,0.53911 -21.18184,13.62931 1.81773,16.19232 13.1979,54.88059 22.42899,76.25 7.48246,17.32146 12.70796,33.83357 14.96984,47.30338 1.96485,11.70101 1.97286,13.1063 0.10675,18.7248 -3.94026,11.86305 -10.16802,14.30416 -21.67773,8.49712 -3.24277,-1.63609 -10.6772,-4.51556 -16.52095,-6.39882 -5.84375,-1.88328 -16.3801,-5.32998 -23.4141,-7.65935 -18.97316,-6.28313 -27.22141,-7.92817 -39.85482,-7.94866 -9.65155,-0.0156 -11.89759,0.3777 -14.6875,2.57226 -3.01655,2.37281 -3.29358,3.35232 -3.29358,11.64542 5.14392,34.33522 9.27624,62.93439 21.97718,101.00949 2.568,7.59997 2.68485,8.98819 1.26917,15.07822 -1.99132,8.56643 -2.65136,9.5551 -7.82087,11.71506 -5.60294,2.34107 -9.31424,0.62022 -21.2709,-9.86279 -8.99404,-7.88548 -22.91115,-15.92613 -27.5657,-15.92613 -1.39305,0 -3.25411,0.8691 -4.13568,1.93133 -1.33481,1.60835 -0.27817,6.15487 6.31853,27.1875 6.52634,20.80827 7.92615,26.79715 7.94846,34.00617 0.0331,10.7004 -1.57096,13.86404 -8.54546,16.85366 -2.96966,1.27294 -5.77191,2.91723 -6.22725,3.65397 -0.45533,0.73673 1.12722,9.36141 3.51677,19.16595 6.29554,35.77237 13.72015,80.88751 11.06828,114.268 -1.46749,16.99215 -1.57058,35.5093 -2.1269,49.87355 -0.5647,14.47337 -0.63677,28.39375 -0.16015,30.93437 0.94258,5.0245 5.44691,8.3755 11.258,8.3755 19.4318,7.46848 29.27954,14.32076 46.49333,24.83013 l 6.96789,-2.29863 c 7.81135,-2.577 23.9285,-4.07175 43.53524,-4.03738 71.05723,2.3159 158.23517,11.84173 220.625,46.16513 19.2551,10.8192 44.12838,20.27062 55.693,34.09076 4.29975,5.1562 9.42762,12.7968 11.39525,16.9792 16.005,34.0201 4.78287,89.4438 -24.56939,121.3426 -9.32534,10.1345 -23.33559,19.7285 -34.70016,23.7622 -5.40175,1.9173 -13.52425,5.454 -20.3187,8.8471 -6.23899,3.1156 -23.88984,7.8982 -35.625,9.6526 -8.59921,1.2856 -13.88028,3.1898 -19.50858,7.0339 -2.82347,1.9285 -7.60472,4.0524 -10.625,4.72 -3.02028,0.6675 -11.11642,2.4055 -17.99142,3.8621 -14.90178,3.1573 -33.17281,7.1003 -44.375,9.5764 -12.19938,2.6964 -32.74176,8.0164 -35.99631,9.322 -1.57923,0.6335 -3.9837,1.1519 -5.34329,1.1519 -1.35958,0 -9.62999,1.9956 -18.37868,4.4346 -8.7487,2.439 -19.00047,5.239 -22.78172,6.2221 -15.67378,4.0754 -53.83663,15.5691 -57.10389,17.1984 -1.93661,0.9656 -6.24605,2.4937 -9.57654,3.3957 -5.12583,1.3883 -6.22328,1.3703 -7.14892,-0.1175 -1.69691,-2.7281 3.30542,-6.642 13.23086,-10.3522 4.82709,-1.8044 9.72786,-3.2808 10.89061,-3.2808 1.16275,0 5.08833,-1.0583 8.72349,-2.352 3.63516,-1.2936 11.39064,-3.6118 17.23439,-5.1517 5.84375,-1.5399 14.5625,-3.8681 19.375,-5.1738 4.8125,-1.3055 10.71875,-2.8662 13.125,-3.4682 50.19559,-12.5573 55.52614,-14.1831 54.66709,-16.6745 -0.29523,-0.8561 -2.16633,-1.4289 -4.16412,-1.2748 -1.99538,0.154 -17.69148,0.4564 -34.88021,0.672 -17.18874,0.2157 -31.88171,0.781 -32.65105,1.2565 -0.76935,0.4755 -1.73565,2.5487 -2.14735,4.6072 -0.56135,2.8067 -1.61762,3.9297 -4.22395,4.4905 -9.09212,1.9561 -15.57509,3.0622 -25.35041,4.3251 -35.3756,4.57 -101.50563,21.8461 -127.3154,33.2605 -9.57766,4.2357 -15.13021,3.8034 -13.27415,-1.0334 0.69955,-1.823 16.20009,-8.9689 22.53906,-10.3907 2.02153,-0.4534 7.33174,-2.166 11.80049,-3.8058 10.3563,-3.8 30.36239,-9.7471 48.75,-14.4915 20.91777,-5.3972 25.87691,-6.3846 48.63655,-9.6841 5.09386,-0.7385 9.57396,-1.6551 9.95579,-2.0369 0.38183,-0.3819 9.48704,-2.164 8.75169,-3.3343 -1.09475,-1.7422 -13.64944,-1.7723 -26.85003,-2.4836 -19.26751,-1.0381 -36.52513,-2.8348 -39.59976,-4.1227 -1.22693,-0.5139 -4.60193,-0.3473 -7.5,0.3702 -2.89809,0.7177 -9.48799,1.9712 -14.64424,2.7857 -31.50247,4.4866 -60.6034,12.3992 -90.3125,20.5 -3.95313,1.0782 -10.42188,2.8278 -14.375,3.8882 -3.95313,1.0603 -11.25376,3.029 -16.22365,4.375 -11.07156,2.9984 -14.82805,3.0813 -15.87605,0.3503 -1.29439,-3.3732 1.55382,-4.8138 16.7872,-8.4908 7.90625,-1.9084 15.78125,-4.0046 17.5,-4.6584 1.71875,-0.6536 5.375,-1.655 8.125,-2.2251 15.29371,-3.6307 32.78494,-8.549 45,-11.313 25.53991,-5.7726 26.42216,-6.0855 25.31226,-8.9779 -0.80464,-2.0968 -6.99482,-4.077 -19.36277,-6.1937 -7.13522,-1.2213 -13.74842,-1.2336 -31.25,-0.059 -12.20972,0.8198 -24.16824,2.0389 -26.57449,2.7094 -2.40625,0.6704 -10.28125,2.1241 -17.5,3.2304 -7.21875,1.1062 -17.90625,3.3926 -23.75,5.0809 -5.84375,1.6882 -12.59375,3.5818 -15,4.208 -2.40625,0.626 -9.92674,2.859 -16.7122,4.962 -6.78546,2.103 -13.02523,3.8236 -13.86616,3.8236 -0.84093,0 -7.66419,1.9907 -15.1628,4.424 -7.49862,2.4332 -17.85259,5.5535 -23.00884,6.934 -10.05619,2.6922 -18.9604,5.6235 -23.34119,7.6839 -3.23447,1.5212 -9.15881,0.302 -9.15881,-1.8849 0,-0.8499 1.82812,-2.1669 4.0625,-2.9265 2.23437,-0.7598 7.4375,-2.5465 11.5625,-3.9706 4.125,-1.4243 9.75,-3.1649 12.5,-3.8682 2.75,-0.7032 8.65625,-2.3383 13.125,-3.6336 4.46875,-1.2952 12.625,-3.6047 18.125,-5.1324 5.5,-1.5275 16.75,-4.945 25,-7.5945 8.25,-2.6493 18.9375,-5.9503 23.75,-7.3353 8.17655,-2.3532 11.1687,-3.0875 26.5625,-6.5197 3.26562,-0.7281 7.90625,-1.8051 10.3125,-2.3935 2.40625,-0.5882 9.34409,-1.8052 15.41741,-2.7043 8.40719,-1.2447 11.33985,-2.1905 12.28878,-3.9637 0.6855,-1.2808 0.92481,-2.6503 0.5318,-3.0433 -0.39302,-0.3932 -6.48547,-2.9837 -13.53878,-5.7568 -14.86712,-5.8455 -16.90907,-5.9624 -39.07421,-2.2375 -28.213,2.4873 -55.27377,10.8054 -81.25,16.4678 -6.875,1.495 -17.77049,4.3465 -24.2122,6.3366 -6.44171,1.9901 -12.73783,3.6185 -13.99138,3.6185 -30.81944,7.6193 -69.55113,20.3262 -91.17142,28.7487 -5.15625,2.0104 -13.875,5.2774 -19.375,7.2602 -13.91846,5.0176 -30.296138,11.403 -36.33215,14.1653 -5.482013,2.5088 -9.97985,2.998 -11.087375,1.206 -1.445613,-2.3391 4.012312,-6.2327 13.044525,-9.306 5.15625,-1.7545 15,-5.2736 21.875,-7.8203 42.48697,-17.7073 85.98103,-30.7743 130,-42.1452 24.64696,-7.7628 49.56755,-13.9387 74.375,-20.0146 4.46875,-1.0971 11.5,-2.626 15.625,-3.3974 4.125,-0.7715 9.85846,-1.9187 12.74102,-2.5496 2.88257,-0.631 7.17307,-1.1471 9.53445,-1.1471 5.23912,0 8.17725,-2.8203 5.85423,-5.6194 -0.85328,-1.0281 -5.56278,-4.0937 -10.46556,-6.8125 -10.0925,-5.5965 -15.90957,-10.5239 -18.67268,-15.8165 -1.04132,-1.9946 -5.1779,-6.7479 -9.19239,-10.5627 -11.73218,-11.1488 -21.57177,-36.0609 -24.7437,-54.669 -3.17193,-18.6081 -1.017,-28.3911 2.3547,-45.7099 2.86749,-14.7466 3.70972,-17.0548 10.26252,-28.12498 6.08371,-10.27775 10.25987,-15.14 28.25975,-32.90175 21.72906,-21.44175 27.14369,-25.3205 38.35647,-27.477 6.8965,-1.32638 11.33619,-4.14563 11.33619,-7.19851 -4.95624,-11.52681 -2.99355,-24.01011 -2.37261,-35.73275 0.45202,-11 1.55392,-32.07237 2.44865,-46.82762 1.75741,-28.98189 0.38246,-64.66569 -3.29832,-85.60045 -0.97397,-5.53956 -2.58518,-16.28116 -3.58047,-23.87024 -1.00081,-7.63125 -3.02139,-16.57012 -4.52088,-20 -1.49118,-3.41092 -5.13912,-13.37364 -8.10651,-22.13935 -4.49802,-13.28724 -5.2019,-16.61185 -4.23256,-19.99174 1.52859,-5.32986 1.46156,-11.69407 -0.18561,-17.62612 -1.59328,-5.73793 -8.7612,-14.03228 -11.27193,-13.0433 -1.47207,0.57986 -6.65296,11.13575 -14.28186,29.09882 -9.90176,23.5221 -18.62816,47.75306 -24.30588,71.6131 -3.3349,14.12192 -8.19188,24.42882 -13.97295,29.65165 -5.35433,4.83732 -6.82062,5.14272 -12.67172,2.63923 -5.95968,-2.54995 -30.89118,-29.27725 -47.71776,-51.15486 -4.65358,-6.05049 -9.81838,-11.89025 -11.47734,-12.97725 -2.77629,-1.81909 -3.21019,-1.8009 -5.45274,0.22857 -15.94536,28.5773 -26.7314,71.52534 -31.34159,101.87456 -3.27993,21.79688 -5.65918,28.14688 -11.4532,30.56775 -3.2849,1.3725 -5.24882,1.43975 -9.4342,0.3225 -8.71896,-2.32712 -9.5235,-0.6965 -14.05338,28.48475 -2.26049,14.562 -5.84879,51.30488 -5.79854,59.375 -0.0486,5.93883 -3.16778,7.91969 1.22954,10.84125 2.95376,1.93538 3.44528,1.91413 7.9378,-0.34487 10.51027,-2.50829 12.7865,-1.65213 26.83388,2.28362 7.12534,1.99625 14.92393,6.48763 17.33018,7.53625 33.126,19.58136 53.20697,49.38234 59.91169,80.48534 2.40231,11.2761 2.40295,11.5765 0.0482,22.8255 -1.31232,6.2695 -2.96518,12.4811 -3.67302,13.8038 -1.5439,2.8848 -1.69541,8.4191 -0.25486,9.3095 0.56766,0.3507 7.94768,-0.17 16.40004,-1.1573 15.80891,-1.8467 17.91832,-1.7009 16.81949,1.1626 -1.1176,2.9124 -6.97389,4.774 -22.03058,7.0033 -8.06231,1.1936 -16.07391,3.0999 -17.8107,4.2379 -7.88809,12.8422 -18.17855,25.2715 -26.67784,37.8362 -7.48451,11.1436 -25.7811,26.6743 -40.69492,34.5428 -11.94224,6.3006 -16.86945,10.6223 -15.19658,13.3291 1.23612,2.0001 5.24664,1.5626 10.95415,-1.195 2.84592,-1.375 6.26912,-2.5 7.60709,-2.5 1.33798,0 4.74795,-0.6115 7.57771,-1.3589 13.06823,-3.4515 23.25397,-6.3242 30.14503,-8.5022 4.125,-1.3038 12.84375,-3.6205 19.375,-5.1484 6.53125,-1.5279 15.25,-3.5971 19.375,-4.5983 4.125,-1.0011 11.4375,-2.6156 16.25,-3.5878 13.4118,-2.7094 20.7686,-4.3049 26.28705,-5.7009 5.90522,-1.4938 15.84802,-1.0263 16.40797,0.7715 0.83427,2.6785 -1.9472,4.5066 -9.6608,6.3496 -20.41928,4.8786 -28.35838,6.6853 -32.40922,7.375 -2.40625,0.4098 -6.90625,1.2381 -10,1.8408 -12.22373,1.5547 -24.12662,5.3837 -36.25,7.4693 -3.09375,0.5233 -7.875,1.8267 -10.625,2.8964 -2.75,1.0698 -7.8125,2.6174 -11.25,3.439 -10.39507,3.3804 -20.38273,4.3655 -30.625,7.5038 -13.14548,4.1276 -28.95836,8.8526 -33.125,9.8978 -2.75,0.6899 -10.625,2.8843 -17.5,4.8763 -28.014175,8.1169 -40.220875,11.6185 -44.375,12.7295 -2.40625,0.6435 -11.125,3.1999 -19.375,5.6807 -19.671325,5.9155 -24.41925,7.3233 -35.625,10.5628 -5.15625,1.4906 -11.109388,3.5456 -13.2292,4.5667 -2.1198,1.0212 -5.77605,2.3425 -8.125,2.9363 -14.1831327,8.4764 -49.062403,15.6649 -61.1458,25.001 -1.71875,1.3444 -4.127025,2.4569 -5.351725,2.4722 -3.261313,0.041 -4.1114,-3.5207 -1.367563,-5.7293 5.278388,-4.2487 23.444975,-12.1799 45.469288,-19.8512 13.399775,-4.6671 25,-9.5957 25,-10.6216 0,-0.5302 -0.8873,-1.7004 -1.971775,-2.6005 -1.578725,-1.3101 -3.07735,-1.3406 -7.5179375,-0.153 -3.0503875,0.8159 -9.3349625,1.4908 -13.9657255,1.4998 -4.630762,0.013 -13.763312,1.1515 -20.294562,2.5387 -8.033475,1.7064 -16.392225,2.5036 -25.838738,2.4645 l -13.963725,-0.058 -2.566337,3.6041 c -1.411488,1.9823 -4.1278,4.1807 -6.036263,4.8854 -3.182612,1.1753 -6.478475,1.9123 -24.719937,5.5281 -20.30754,4.5969 -39.745,8.7637 -59.375,14.7983 -1.71875,0.5339 -7.90625,2.2022 -13.75,3.7076 -5.84375,1.5054 -11.91709,3.2495 -13.49631,3.876 -6.03315,-0.7046 -11.23419,4.8055 -16.51529,4.8889 -2.85951,0 -3.54344,-0.5255 -3.38699,-2.6025 z m 145.89859,-54.203 c 12.768062,-0.6759 35.171213,-2.6519 65.625,-5.7883 5.5,-0.5664 13.09375,-1.6702 16.875,-2.453 17.542587,-3.6314 26.672575,-5.4154 38.125,-7.4495 37.673096,-7.3057 68.76134,-18.4306 101.25,-35.8656 1.375,-0.7405 4.1875,-2.1099 6.25,-3.043 5.72662,-2.5906 16.14289,-9.3319 18.1427,-11.7415 0.98139,-1.1825 5.73826,-4.8311 10.57082,-8.108 4.91845,-3.3353 11.53788,-9.3761 15.03648,-13.7223 14.13851,-11.9042 19.1064,-28.5352 28.81124,-42.3957 3.72686,-5.1666 4.15472,-11.3776 0.78378,-11.3776 -1.25398,0 -5.04906,1.9687 -8.4335,4.375 -3.38443,2.4062 -6.60261,4.375 -7.15147,4.375 -22.29676,10.3369 -34.01627,15.4499 -68.38505,32.9327 -34.36878,17.4828 -126.891413,30.0613 -149.375,33.3161 -22.483587,3.2548 -103.27227,5.3077 -156.25,1.2387 -49.91981,-3.2245 -91.46199,-15.2621 -125.85014,-48.7375 -9.2645,-9.0278 -15.05179,-13.75 -16.85101,-13.75 -3.11307,0 -9.00636,9.1945 -12.01802,18.75 -3.58941,11.3886 -1.17709,28.4125 6.81941,48.125 6.67886,16.4642 18.74628,29.6052 34.62901,37.7096 24.27847,14.149 45.18775,20.7729 75.09686,22.5404 8.32704,0.4187 15.45283,1.2673 15.8351,1.8858 0.72344,1.1705 84.646265,0.5504 110.46379,-0.8163 z m 711.875,-23.7185 c 11,-0.4823 24.21875,-1.407 29.375,-2.055 5.15625,-0.648 12.75,-1.4507 16.875,-1.7835 28.04028,-0.6648 49.93082,-10.512 82.5,-16.1484 23.28856,-5.5481 55.54291,-15.7641 75.45169,-33.6548 9.43191,-8.8878 18.23236,-23.7677 25.99915,-43.9593 4.12171,-10.7154 4.95285,-25 1.4546,-25 -1.98043,0 -10.56294,6.5436 -25.58703,19.5083 -3.67016,3.1672 -9.3495,7.0615 -12.62072,8.6542 -44.54526,21.5314 -98.35689,30.5347 -147.82269,39.461 -17.37863,3.1935 -25.13831,4.3127 -34.375,4.9583 -87.92683,11.8278 -150.41667,21.6446 -284.7231,-43.9898 -13.14593,-8.9965 -32.39796,-28.4613 -45.89746,-46.4045 -6.08584,-8.0892 -11.46742,-14.0625 -12.6694,-14.0625 -1.627,0 -2.2849,1.683 -2.97194,7.6026 0.54345,36.3715 17.32501,71.8858 45.10776,91.9324 13.25162,12.895 30.36919,16.4577 45.96528,25.3198 2.64612,1.5078 7.98987,3.6122 11.875,4.6765 24.12176,7.5083 44.79228,13.8402 68.31386,18.0402 4.125,0.7393 11.4375,1.8117 16.25,2.3828 4.8125,0.5713 12.6875,1.6952 17.5,2.4977 18.74467,3.1256 82.29866,4.1151 130,2.024 z m -663.75,-60.0232 c 50.6064,-5.9339 101.655322,-15.445 146.18309,-25.0243 27.7281,-10.9319 59.99902,-23.835 85.06123,-36.9223 1.35022,-1.492 4.35092,-3.5049 6.66824,-4.4731 6.62543,-2.7683 16.60298,-11.8311 19.1161,-17.3636 3.32837,-7.3273 2.9196,-10.8748 -2.57028,-22.3065 -6.95614,-14.4849 -17.20742,-27.12328 -34.4913,-42.52278 -17.62988,-15.70787 -21.62635,-17.42437 -40.793,-17.52075 -14.31129,-0.0725 -16.04908,0.8595 -16.04908,8.60363 -10.25383,37.0436 -93.876003,38.5567 -106.94385,-6.12738 -1.067812,-4.2545 -2.8514,-5.55975 -10.203975,-7.467 -5.470937,-1.41912 -6.806062,-1.34162 -11.540825,0.66913 -2.9448,1.25075 -7.3976625,3.86875 -9.8952625,5.818 -8.80065,6.8685 -17.7465995,8.258 -21.6028495,3.35562 -4.240088,-5.39037 -8.771238,-5.32575 -44.188238,0.631 -45.51004,7.4798 -91.13459,17.3615 -133.75,38.41203 -28.05826,11.0817 -52.3442,19.7933 -73.74582,35.2855 -7.78043,5.6593 -18.12918,15.9173 -18.12918,17.9702 50.85407,73.0705 185.00735,77.442 266.875,68.9826 z m -9.301137,-87.693 c -3.053113,-1.6798 -6.428113,-3.8412 -7.5,-4.8031 -2.770113,-2.4859 -10.380975,-6.6704 -33.017225,-18.1534 -16.8134,-8.529 -20.752125,-10.0533 -25.976738,-10.0533 -6.87285,0 -8.59314,-1.8583 -6.32622,-6.8335 0.96857,-2.1259 2.97572,-3.27516 7.35182,-4.20953 11.273763,-2.40737 20.551038,1.21013 54.490175,21.24713 20.53035,12.1206 28.30265,19.7749 24.604538,24.2309 -2.1703,2.615 -7.248888,2.0838 -13.62635,-1.4252 z m 52.852862,-26.727 c -1.484063,-0.6147 -7.109063,-4.4653 -12.5,-8.5568 -11.1356,-8.4514 -18.9647125,-12.72603 -23.308188,-12.72603 -6.565274,0 -9.665524,-9.32425 -4.340399,-13.05412 6.99795,-4.9015 15.2651245,-1.24213 40.918612,18.11275 11.41015,8.6086 14.157013,11.5469 13.589075,14.5359 -0.333275,1.754 -1.7293,2.3411 -6.047062,2.5433 -3.087575,0.1445 -6.827988,-0.2402 -8.312038,-0.855 z m 592.314735,111.6669 c 59.91292,-3.9513 122.8203,-16.296 174.13354,-32.4461 18.62288,-5.8803 32.42545,-11.4675 38.13234,-15.436 17.36423,-12.0748 44.2897,-37.2751 46.28435,-43.3189 1.43773,-24.7193 -26.16088,-30.586 -40.66669,-41.78148 -61.59028,-38.19422 -154.16396,-53.65597 -217.5,-53.6595 -13.75,0.0475 -26.6875,0.24675 -28.75,0.44338 -2.0625,0.19662 -5.36186,0.44562 -7.3319,0.55325 -2.43429,0.133 -5.04625,1.79762 -8.15236,5.19562 -2.51374,2.75 -5.43267,5 -6.48649,5 -1.05383,0 -5.54151,-2.57175 -9.97265,-5.71487 -9.27166,-6.07838 -43.2502,-29.41132 -52.38956,-25.55763 -2.31232,1.2375 -3.09167,2.78038 -2.69202,5.32913 0.0804,0.5125 0.66912,6.95525 1.30838,14.31725 1.28806,23.80179 -10.88589,36.9369 -33.81414,46.16962 -26.11496,8.81067 -86.26914,8.31264 -83.11255,-22.615 1.32829,-12.96487 -2.64806,-17.551 -11.23105,-12.95325 -8.98952,4.8155 -46.26242,40.00979 -48.33011,48.3995 -2.06769,8.38968 8.53525,27.10538 16.78341,38.57098 9.61915,13.3714 27.1543,31.755 36.68098,38.456 31.14224,26.0899 68.40842,31.4628 97.11866,41.38 36.69708,12.9594 93.81652,13.7729 139.98786,9.668 z m -10.65812,-123.7831 c -2.91163,-2.9116 1.87578,-12.03025 9.5462,-18.18276 7.43081,-5.96037 22.71832,-12.59912 30.49848,-13.24424 6.05529,-0.50226 6.64614,-0.30425 8.00715,2.68287 1.19333,2.619 1.10038,3.78838 -0.49467,6.22275 -1.66293,2.53788 -2.98403,2.99975 -8.61481,3.012 -9.31285,0.02 -14.92463,2.79513 -24.66107,12.19488 -7.6698,7.4045 -11.98245,9.6134 -14.28128,7.3145 z M 579.375,999.32652 c -2.91768,-2.91775 -2.41188,-6.75087 1.97946,-15.00125 8.79374,-16.52163 30.19971,-32.2905 41.94986,-30.90262 3.73483,0.44112 5.48785,1.31312 6.02173,2.99525 1.4076,4.43487 -0.65677,6.852 -9.43113,11.0425 -10.47291,5.00162 -20.99439,15.06025 -26.43954,25.27637 -4.49124,8.42653 -9.77216,10.89803 -14.08038,6.58975 z m -457.18689,-79.9555 c 5.50362,-1.18013 6.33541,-3.70888 7.77492,-23.63663 0.64834,-8.97525 2.11368,-21.09987 3.25629,-26.94362 1.14263,-5.84375 2.13125,-13.15625 2.19694,-16.25 0.13661,-6.43313 1.61375,-6.11463 -17.38055,-3.74713 -16.71926,2.89442 -34.209029,-2.15973 -47.5,-4.96537 -14.051788,-2.984 -16.525688,-3.02588 -17.98255,-0.30363 -1.778725,3.3235 -5.67485,35.99163 -5.612775,47.06175 0.04787,8.53125 0.129525,8.74225 5.081612,13.125 15.227993,12.44372 51.723683,19.44654 70.166113,15.65963 z m 337.7226,-7.3345 c 12.80642,-2.32912 15.1999,-3.47112 19.11415,-9.11937 l 3.38401,-4.88313 c -1.16501,-21.61105 -1.68876,-43.23368 -1.87312,-64.86825 -4.59551,0.28645 -9.51771,0.46033 -13.75,2.17663 -5.31525,2.23012 -43.92811,2.05812 -53.49251,-0.23838 -6.22998,-1.49587 -7.47884,-1.49075 -8.93288,0.0362 -1.69981,1.78525 -5.02446,25.03038 -7.04766,49.27538 -0.57371,6.875 -1.40721,14.58212 -1.85223,17.127 -0.74692,4.27137 -0.4869,4.8235 3.38308,7.18287 2.7473,1.67488 6.56176,2.60838 11.0672,2.70838 3.78125,0.0838 8.5625,0.58187 10.625,1.10675 6.28553,1.59937 29.43875,1.30287 39.375,-0.50425 z M 2.71396,830.97827 c 12.257792,-14.97168 23.587992,-34.91311 31.541675,-48.4375 11.446709,-17.43849 22.750994,-34.04531 34.894925,-50.68686 3.363175,-4.61077 10.071375,-12.52994 14.907113,-17.59818 9.65785,-10.12218 12.22765,-11.03515 19.161177,-6.80733 4.5338,2.76454 15.41301,18.37938 19.94484,28.62665 10.86281,20.83875 20.87149,39.35152 28.26216,51.78768 2.55207,4.29168 5.8219,10.323 7.26627,13.40295 3.073,6.55278 4.63143,7.79349 7.7158,6.14279 10.66483,-28.14482 21.82549,-63.86025 34.26338,-95.17225 3.7473,-9.44876 8.524,-19.71439 10.6149,-22.8125 3.45749,-5.12302 4.25956,-5.63295 8.86012,-5.63295 4.23007,0 5.8021,0.77919 9.59895,4.75776 6.08353,6.37472 17.03555,19.22967 23.92523,28.08227 8.94052,11.48775 22.50435,27.58947 25.24832,29.97247 6.20831,5.39161 11.73694,1.1212 15.2916,-11.81152 3.99266,-14.52628 14.21629,-42.74532 20.74176,-57.25098 6.04052,-16.73424 16.34457,-32.74901 22.40297,-48.89247 4.71509,-12.68734 10.96683,-14.75908 20.6338,-6.83774 12.77291,12.78127 22.09986,29.92048 29.42627,45.10521 3.96864,8.30299 9.29592,14.97385 12.30504,15.40845 3.90321,0.56375 6.02647,-1.53317 10.46352,-10.33366 5.45894,-10.82731 12.40355,-20.68915 18.35605,-26.06688 12.67943,-12.06923 39.14826,7.83126 45.48174,-0.88512 1.84298,-2.63123 1.19084,-7.03071 -3.42754,-23.12279 -2.64303,-9.20929 -4.67072,-26.21337 -3.72623,-31.24795 1.11827,-5.9609 6.79665,-10.62705 12.93237,-10.62705 5.87818,0 18.07331,3.95127 27.58743,8.93844 7.25604,3.80351 11.59925,4.0221 12.89366,0.64891 0.33082,-0.86211 -0.14994,-4.91882 -1.06835,-9.01491 -6.7359,-30.0418 -8.37734,-37.99298 -10.69824,-51.82244 -2.11553,-16.65028 -2.87847,-47.03107 8.81188,-57.78894 3.71675,-3.32091 4.41107,-3.46106 17.14636,-3.46106 16.79491,-0.0412 33.32979,4.04225 48.5628,8.6756 6.32458,1.94165 32.95619,12.43549 37.50986,5.85978 1.84009,-2.80833 1.38124,-4.5201 -8.70296,-32.46642 -15.4988,-42.95183 -23.37867,-75.73178 -23.48476,-97.69557 -0.047,-9.74124 0.38776,-12.12404 3.23912,-17.75094 2.7389,-5.40496 4.08448,-6.71901 7.9911,-7.80392 5.70974,-1.58565 29.80107,-1.7408 34.82362,-0.22427 21.8647,5.2516 41.98787,11.5164 57.37402,16.33022 24.2236,7.58716 30.13263,6.70557 26.92025,-4.01635 -6.99473,-16.80487 -16.19128,-31.09416 -25.43096,-46.53313 -11.32149,-18.95625 -25.06435,-38.85344 -36.32164,-52.5872 -1.7299,-2.11046 -6.78505,-9.28115 -11.23365,-15.93485 -13.94875,-20.86296 -12.89448,-28.36272 5.76607,-42.95034 18.66055,-14.58762 102.83145,-4.3616 104.67493,-18.39443 0,-3.85968 -1.9874,-6.18685 -15.33475,-17.95648 -25.64819,-22.61645 -41.5841,-34.51428 -65.29025,-48.745987 -33.21476,-19.940113 -36.36775,-22.316925 -42.1465,-31.771325 -5.61188,-9.181375 -5.6808,-8.9836 7.84294,-22.507338 27.03115,-28.711234 64.07587,-35.5085834 95.17662,-55.214862 6.54303,-4.185525 14.75194,-12.235988 14.75194,-14.4672 0,-4.650313 -12.68863,-10.022563 -29.375,-12.437113 -28.46454,-3.839163 -62.41048,-7.313549 -90.625,-2.833775 -34.23538,5.729786 -59.95039,16.984345 -92.26871,9.91875 -5.25219,-1.131787 -7.01943,-2.158187 -8.4375,-4.900437 -0.98659,-1.9073 -1.79379,-4.138801 -1.79379,-4.958338 0,-2.785 8.64654,-23.3706 11.7164,-27.894287 5.13564,-11.304315 12.3773,-22.43922 15.90291,-34.275538 1.3075,-4.46265 1.29153,-5.5923 -0.0911,-6.44685 -2.09054,-1.29202 -4.30446,-0.50682 -10.65315,3.77829 -11.95936,7.00051 -24.48517,13.690993 -35.25425,21.396698 -7.01484,5.050437 -15.9711,11.151362 -19.90279,13.557612 -16.01012,9.7984 -26.7818,17.058138 -39.84296,26.85275 -13.52678,8.015462 -23.73986,19.871686 -36.08713,26.23055 -12.13216,6.157963 -14.65493,5.701913 -27.42545,-4.957825 -5.35201,-4.467412 -11.5324,-9.04975 -13.73418,-10.182975 -2.20178,-1.133237 -7.98528,-4.74245 -12.85222,-8.020475 -10.85156,-7.308837 -15.0621,-9.1663 -31.77602,-14.0178 -14.3624,-4.168937 -29.375,-5.3789 -29.375,-2.367537 0,0.915675 3.64775,2.95805 8.125,4.549187 18.06631,6.4205 29.24087,12.547675 37.67979,20.6604 10.60638,9.922075 27.19003,20.551359 25.62687,34.2044125 -0.70021,5.957775 -0.3594,7.399075 3.2683,13.8214255 11.64819,11.830321 8.27205,56.708957 17.72255,56.977887 6.54846,0 26.31134,-17.143062 38.11721,-33.064313 4.61289,-6.220874 8.75152,-12.295062 9.19694,-13.498187 1.33391,-3.602962 -0.42272,-6.052513 -6.0792,-8.477162 -7.57169,-3.245613 -8.67861,-5.9291005 -4.80013,-11.636813 3.6037,-5.3033125 6.1145,-5.66575 14.11185,-2.0370375 5.96304,2.7056625 19.80534,6.2135125 24.51909,6.2135125 1.62699,0 3.84209,0.883925 4.92244,1.9642875 4.53579,4.5357755 0.7386,10.6730375 -8.07125,13.0452875 -3.72985,1.004338 -5.74774,2.465038 -7.25344,5.250588 -16.32525,24.709372 -36.61596,50.077635 -57.80476,61.662337 -7.47097,3.785837 -8.99576,8.116813 -7.46467,21.2025 0.17672,32.43548 -4.28661,63.43876 -13.98138,96.875 -4.2581,14.56044 -15.53177,40.46626 -20.37119,46.81105 -9.92393,23.51629 -23.5788,42.4677 -37.57976,63.06805 -7.61264,11.2233 -50.8414,52.6209 -54.94855,52.6209 -28.48249,20.65023 -56.71477,28.11042 -76.91314,31.23068 C 133.24927,403.85498 88.514399,383.02271 60.421122,345.05637 51.593247,333.06635 45.542785,322.79267 33.542072,299.41577 10.295746,247.06804 -5.1296414,177.56021 11.831273,112.92821 c 1.586512,-5.63067 2.591912,-11.35673 2.234212,-12.72459 -0.3577,-1.36785 -3.876937,-5.021938 -7.8205125,-8.1202 C -7.76519,81.07642 -30.02339,50.74072 -28.231603,45.095308 c -0.909895,-8.670345 -21.226504,-8.959636 -21.857687,-15.2648 0,-0.70335 1.1633,-2.912525 2.585112,-4.909275 3.1025,-4.35705 7.966,-4.768438 17.0587,-1.442963 8.215264,3.79296 33.8573296,-0.779497 36.408113,3.777675 2.3908555,8.286156 -10.5224318,12.110979 -11.051925,17.96685 0,2.495488 15.448675,23.921463 20.0236,27.771013 2.155013,1.813325 4.902,3.296962 6.104413,3.296962 C 34.921626,64.813431 41.063309,48.018864 52.49061,35.599945 59.679885,27.83162 60.562673,25.270845 58.090823,19.35487 55.37901,12.864608 55.668298,9.4102075 59.493473,2.605395 c 3.463912,-6.1621625 3.3364,-10.064625 -0.328875,-10.064625 -1.141013,0 -5.062088,1.7092875 -8.713513,3.7984125 -4.849433,3.52351004 -15.307882,3.43866769 -15.540375,-2.2507625 8.226697,-12.850348 32.414345,-24.804411 46.350838,-29.684175 11.6049,-3.919313 19.899162,-8.202025 19.899162,-10.274862 -7.840281,-6.819433 -37.04525,8.627466 -48.621525,12.681487 -11.8102,3.915826 -23.948188,10.756792 -33.273125,16.913 -12.59385,8.34 -15.7590625,8.3972125 -19.8326,0.358463 -1.66065,-3.277138 -3.662,-8.344975 -4.4474375,-11.261875 -1.3226125,-4.911813 -2.13965,-5.677638 -11.0641875,-10.370575 -14.363975,-7.553251 -38.579412,-24.332263 -62.106762,-43.034113 -2.791175,-4.968643 -49.118093,-37.86152 -49.404363,-29.25292 0,3.93618 8.33233,24.772282 12.89088,32.23537 2.35752,3.85965 6.62975,11.2363 9.49383,16.39255 8.942615,16.0995 20.90624,32.559988 34.829328,47.920912 7.376025,8.1377505 13.913637,16.074388 14.528025,17.636963 1.58585,4.0332875 -0.0365,9.178925 -4.209925,13.352288 -3.197775,3.197787 -4.454913,3.589837 -11.510913,3.589837 -10.954437,0 -53.513225,3.359837 -64.146225,5.064075 -22.16026,3.5518 -47.93709,11.8354 -51.16356,16.44185 -2.50969,3.583063 -1.24365,5.6927 5.38205,8.9683 5.54699,2.742313 24.60624,9.035887 36.40651,12.021825 20.68528,5.782428 44.71147,6.21013 61.26785,18.14205 7.448288,5.46755 8.73215,7.557838 8.73215,14.217063 0,5.852327 -4.654387,13.533087 -12.491112,20.613097 -2.944725,2.66038 -14.534948,9.1427 -27.876578,15.59115 -29.72272,14.36598 -37.05655,20.78276 -29.31981,25.65365 16.64343,4.47279 36.23141,4.13344 50.625,10.29758 5.721613,2.48637 6.5625,3.30975 6.5625,6.42585 0,4.03932 -5.37045,13.02838 -10.769475,18.02593 -4.530445,4.19359 -24.520165,15.88654 -41.858185,24.48492 -24.08826,11.94597 -23.61566,14.15063 5.04685,23.54361 5.11181,1.67519 12.00244,4.78366 15.3125,6.90772 6.87835,4.41383 7.3334,6.36457 3.83081,16.42212 -16.75577,24.59053 -52.87403,53.17128 -81.00476,74.67921 -28.93304,23.48017 -57.58609,50.38317 -79.93274,74.19001 -12.36292,13.21263 -29.24408,37.2823 -29.32415,41.81128 -0.10537,5.96067 15.88515,8.63076 31.59296,5.27537 37.36561,-9.75599 70.2565,-29.31502 106.48119,-41.2935 12.15863,-3.81756 61.61399,-22.38389 71.160713,-14.26887 6.693198,11.24734 -18.110603,42.80665 -23.698263,52.41071 -10.96963,17.56076 -22.61881,37.24377 -29.5291,50.625 -4.67307,11.57315 -32.90971,61.77025 -12.6095,62.5 4.40694,0 19.10949,-8.69174 29.28374,-17.31175 14.60591,-12.37469 22.84821,-19.10166 31.01741,-25.31494 2.788411,-0.77722 50.005599,-42.86664 58.706025,-27.45549 4.556413,8.51375 -3.796837,34.63855 -22.208537,69.45718 -4.72605,8.9375 -12.594663,23.84375 -17.485788,33.125 -8.561925,16.2468 -16.4517,34.25915 -18.25177,41.6688 -1.19445,4.91671 0.14876,8.3312 3.27737,8.3312 3.378075,0 14.060888,-6.66631 19.872088,-12.40061 7.33295,-7.23593 26.114312,-21.28527 33.473075,-25.03943 12.178187,-5.20974 15.485257,0.67668 14.546862,9.08838 -0.462562,4.08852 -3.103012,13.1246 -5.867662,20.08016 -5.640039,18.30946 -15.959565,34.76386 -22.362438,52.6409 -1.096249,4.77374 -7.519128,14.07411 -4.22297,17.42831 2.690713,2.69072 4.616663,1.45624 17.689538,-11.33842 13.0261,-12.74886 22.098674,-19.20929 26.976175,-19.20929 4.967062,0 10.804862,6.06541 11.036062,11.46635 0.097875,2.28725 0.3132875,17.9399 0.4785875,34.78365 0.4572625,46.59154 2.082475,96.54163 3.2435,99.6875 1.1622875,3.14925 3.3733,3.58087 6.4031325,1.25 z m 116.95618,-48.01045 c 0.21143,-1.48388 -1.10945,-5.70263 -2.93529,-9.375 -8.00334,-15.41351 -15.42038,-31.72298 -27.055465,-42.92705 -6.279568,6.78248 -12.390207,14.24107 -17.357125,21.47634 -3.3668,4.93699 -5.618389,7.31332 -7.3915,9.76127 -1.773111,2.44795 -1.592342,10.19321 8.19975,11.88739 9.792092,1.69418 29.04221,5.91018 39.2802,11.39666 3.25329,1.74914 6.85065,0.64923 7.25943,-2.21961 z m 356.46404,-15.37749 c 0.95113,-1.7772 0.97249,-3.28202 0.0705,-4.96738 -0.71169,-1.3298 -1.29398,-5.03102 -1.29398,-8.22493 0,-7.74771 -3.51799,-35.11385 -5.22018,-40.60725 -2.73236,-8.8181 -4.41535,-9.23677 -13.81805,-3.4375 -19.18374,6.87057 -34.88214,18.33215 -53.30976,27.78138 -4.09015,2.06911 -4.19992,2.31943 -3.48996,7.95871 2.38574,18.95009 3.3773,25.49982 4.01716,26.53512 1.14088,6.79554 11.44558,5.84545 18.69579,7.13538 12.09301,3.19195 47.35165,-1.66886 54.34848,-12.17353 z M 243.08048,363.18266 c 21.96443,-13.22012 42.36436,-31.42705 57.32905,-48.86928 15.1342,-17.19894 24.67877,-39.05874 36.38263,-57.49201 15.97292,-24.9697 32.14271,-76.64472 35.65324,-113.93972 1.70516,-18.11522 1.71327,-22.14207 0.0889,-44.09088 -4.02446,-54.377125 -7.26632,-67.915962 -20.75998,-86.698987 -3.79411,-5.281288 -4.36358,-7.0273755 -4.36358,-13.3791505 0,-8.1536875 0.36091,-7.7196375 -13.125,-15.7844875 -12.96374,-7.752562 -39.35745,-18.331287 -51.25,-20.541225 -59.46187,-4.102139 -141.64068,-9.447003 -186.5625,15.925375 -6.850168,6.706403 3.260307,8.110179 5.22171,13.3208625 2.1507,7.85249992 -7.584997,8.66921613 -11.52826,8.56445 -8.933338,-0.26805 -13.180563,1.1714125 -15.95645,5.4079625 -2.008763,3.0657625 -1.919288,3.5139125 2.569262,12.868287 8.482625,17.67825 8.129726,19.47095 -4.579762,23.265225 -17.498607,7.205963 -31.879299,37.481517 -37.1951,58.301688 -15.724925,80.50998 -3.747601,184.19407 57.5948,243.16651 42.13057,39.04044 106.26528,48.55945 150.48104,19.97538 z M 407.02443,-37.77173 c 0.55621,-0.859375 1.08063,-4.65625 1.16539,-8.4375 0.15309,-6.8295 3.05776,-22.106762 4.71213,-24.783575 5.50748,-13.442741 5.70692,-28.743935 5.31943,-38.479815 -0.0754,-23.98697 -8.95452,-44.912 -15.75693,-66.73661 -1.84443,-6.03315 -0.19976,-10.09628 -16.96657,-31.875 -16.76681,-21.77872 -108.25609,-84.05388 -179.63173,-69.4365 -74.82458,14.16413 -120.045366,69.62418 -155.518402,133.81143 -12.870528,22.63399 -22.363735,46.662481 -29.350625,71.874995 -2.941288,10.788175 -4.500288,28.961125 -2.643738,30.817675 26.892816,-11.330094 59.76795,-25.627465 88.652665,-33.37715 56.6384,-12.630326 136.82207,-18.86532 194.15466,-14.36755 29.21708,2.311688 48.68524,7.26135 66.04251,16.790913 9.38167,5.15075 22.79035,17.54685 31.58374,29.198612 5.134,6.80285 6.52443,7.646813 8.23748,5 z m 51.08992,-69.75294 c 5.28077,-5.48801 20.58943,-38.24118 45.9111,-85.55956 25.32167,-47.31838 43.24121,-72.00443 62.9105,-112.69214 3.24993,-6.76932 8.23643,-15.40161 11.08111,-19.18286 6.64699,-8.83542 9.51004,-13.73565 13.87635,-23.75 1.9484,-4.46875 5.60603,-11.21875 8.12805,-15 2.52201,-3.78125 5.50565,-8.5625 6.63029,-10.625 1.12463,-2.0625 4.2725,-6.84375 6.99523,-10.625 6.39279,-8.87808 10.14172,-12.75302 0.32623,-14.47719 -9.81549,-1.72417 -61.74542,1.65047 -76.44553,3.44978 -14.70011,1.79932 -28.82272,3.32476 -43.24197,5.07008 -10.68104,1.31506 -55.9307,3.58097 -72.5,3.6305 -5.5,0.0164 -15.34375,-0.63011 -21.875,-1.43676 -64.66316,-4.78116 -126.47991,-2.28905 -188.125,2.51949 -46.09215,3.62888 -72.23068,4.92793 -110,5.46687 -91.655063,3.00104 -153.548485,9.11607 -239.375,19.54308 -9.6505,1.09974 -15,3.02501 -15,5.39846 3.46707,9.79214 17.74573,22.34192 20,31.54957 35.450346,57.95284 75.927216,109.49051 115.36455,163.03612 8.9649937,9.07249 20.7627629,38.94486 34.536625,39.7202 1.980863,-0.38225 8.922975,-12.9577 12.803587,-23.19334 18.873944,-34.5676 48.156119,-71.82015 68.936088,-94.15308 38.91268,-43.52335 94.32856,-62.57212 143.0023,-62.84106 60.62577,-1.25316 138.09222,38.26701 164.7964,78.59228 26.70418,40.32527 29.32065,64.8839 33.76775,97.79798 1.86269,14.43903 2.37132,16.21818 5.36279,18.75831 4.4832,3.80681 7.77131,3.5367 12.13355,-0.99673 z M 163.78719,-353.4898 c -4.85529,-0.4635 -10.43177,-3.67855 -9.77869,-5.63779 0.495,-1.48502 4.56766,-2.80656 14.65221,-4.75453 74.85863,-13.72616 158.99449,-12.11801 229.375,-10.66643 23.375,0.52374 44.56959,0.91619 47.09909,0.8721 2.5295,-0.0441 4.95331,0.493 5.38627,1.19353 0.98723,1.59737 40.25638,1.63477 61.88964,0.0589 3.54467,-0.12229 50.3037,-2.36136 33.04131,9.27962 -4.97016,3.25658 -46.45644,5.40884 -78.66631,4.08111 -42.63156,-1.75731 -59.27586,-2.07879 -111.26401,-2.14901 -33.56468,-1.68789 -69.86016,0.70617 -101.23599,2.17348 -10.3125,-0.35732 -23.8125,-0.1921 -30,0.36716 -12.05139,1.36076 -24.31057,1.54123 -36.25,3.72609 -7.32675,1.37481 -18.23573,2.02971 -24.24852,1.45571 z m 702.38673,1614.1714 c -3.77123,-4.544 2.48308,-6.854 15.92429,-5.8815 5.54975,0.4015 7.10538,2.9478 3.8125,6.2407 -2.2485,2.2485 -17.80759,1.9655 -19.73679,-0.3592 z m -86.57571,-0.779 c -1.20313,-0.6798 -2.1875,-2.064 -2.1875,-3.0757 0,-2.2154 3.1664,-3.5546 13.125,-5.5518 9.24062,-3.4751 19.40102,-2.8447 28.50897,-5.0132 2.88257,-0.7034 10.30353,-2.0818 16.49103,-3.063 6.1875,-0.9814 15.46875,-2.5833 20.625,-3.5599 26.43125,-5.0062 40,-5.9651 40,-2.8266 0,2.933 -13.85475,6.6821 -40,10.8241 -12.49946,2.2711 -24.5097,4.916 -36.875,7.3838 -24.63815,4.9185 -36.94438,6.4325 -39.6875,4.8823 z m -72.25866,-2.0523 c -2.96324,-2.0757 -1.62478,-4.6532 2.92184,-5.6268 1.52587,-0.3267 8.39932,-2.028 15.27432,-3.7805 6.875,-1.7525 15.875,-3.8734 20,-4.7131 4.125,-0.8398 12.28125,-2.8665 18.125,-4.5039 8.74759,-2.4511 39.69009,-9.9449 58.75,-14.2281 2.40625,-0.5408 7.75,-1.8228 11.875,-2.8488 7.00201,-1.7417 13.38066,-3.0806 28.75,-6.0345 7.14601,-1.3735 14.52319,-2.9958 22.1875,-4.8795 8.16363,-2.0065 33.41375,-4.605 33.625,-3.4605 0.58075,3.1473 0.1975,3.9353 -2.0625,4.2403 -1.375,0.1856 -5.45313,0.9424 -9.0625,1.6816 -3.60938,0.7394 -9.79688,1.925 -13.75,2.6348 -3.95313,0.7098 -12.25,2.3875 -18.4375,3.7282 -6.1875,1.3406 -17.4375,3.6039 -25,5.0294 -7.5625,1.4255 -20.5,4.2042 -28.75,6.175 -8.25,1.9709 -22.59375,5.37 -31.875,7.5539 -18.83543,4.4318 -42.6956,10.5916 -51.25,13.2306 -3.09375,0.9545 -10.83334,3.0519 -17.19908,4.661 -10.19521,2.577 -11.87761,2.7129 -14.12208,1.1409 z m -87.28553,-5.1945 c -1.08037,-0.6843 -1.45335,-2.2049 -0.99165,-4.0434 0.76459,-3.0444 1.54924,-3.3341 33.34834,-12.3123 4.46875,-1.2617 14.59375,-4.2478 22.5,-6.636 46.22412,-11.8902 94.63144,-25.5423 138.75,-33.358 5.15625,-0.8468 11.0625,-1.9931 13.125,-2.5475 2.0625,-0.5542 7.6875,-1.6617 12.5,-2.4611 4.8125,-0.7992 10.85086,-1.9916 13.41859,-2.6495 4.9704,-1.2736 23.23399,-1.7464 24.35001,-0.6302 0.36589,0.3658 0.34424,1.5017 -0.0481,2.5241 -0.89292,2.3269 -7.05457,3.9626 -21.47052,5.6996 -6.1875,0.7456 -14.0625,1.8718 -17.5,2.5025 -17.60344,3.0724 -31.02427,6.3667 -48.125,9.9734 -3.78125,0.7951 -9.125,1.9469 -11.875,2.5594 -33.82144,6.5532 -61.4123,15.0752 -93.65297,23.1031 -8.49431,2.0965 -51.70417,15.4107 -58.6159,18.0614 -4.15365,1.5928 -3.57085,1.571 -5.7128,0.2145 z m -970.14331,-58.712 c 0,-2.0314 3.22687,-3.7979 10.69662,-5.8559 13.13369,-3.6183 13.35027,-3.6369 12.8627,-1.1051 -0.83327,4.3267 -23.55932,11.0416 -23.55932,6.961 z m 602.91979,-80.862 c -1.03058,-2.6857 0.0584,-3.4029 10.83021,-7.1327 13.60149,-4.7097 17.5,-5.3365 17.5,-2.8138 0,1.9997 -7.85505,6.1115 -19.28676,10.0957 -6.53813,2.2788 -8.12178,2.2525 -9.04345,-0.1492 z"
           style="fill:#030303" />
      </g>
    </g>
  </g>
</svg>
